<svg width="1512" height="307" viewBox="0 0 1512 307" fill="none" xmlns="http://www.w3.org/2000/svg">
<g filter="url(#filter0_bf_252_685)">
<path d="M0 150.476L6.00894 154.642L12.0179 158.114L18.7779 160.891L24.7869 162.974L33.0492 165.057L39.8092 166.445L45.8182 169.223L50.3249 172L53.3294 175.471L56.3338 180.331V184.497L53.3294 190.746L50.3249 192.829L43.5648 197.689L36.8048 203.243L33.0492 208.103V211.575V215.046L35.3025 217.129L36.8048 218.518H41.3115H43.5648H48.8227H53.3294H56.3338H61.5917L65.3472 219.906H69.8539L73.6095 221.295H82.6229H86.3785H90.8852H94.6408H96.8942V219.906V217.129H99.1475H101.401L102.903 215.046C101.651 214.352 99.1475 212.686 99.1475 211.575C99.1475 210.464 96.1431 208.798 94.6408 208.103L93.1386 205.326L89.383 203.243V197.689C90.1341 196.995 91.9368 195.606 93.1386 195.606C94.3404 195.606 96.1431 193.755 96.8942 192.829V190.746L94.6408 187.274V184.497H96.8942L102.903 182.414H111.165L121.681 185.886L127.69 184.497H132.948H140.459L145.717 182.414L150.224 180.331L156.984 182.414L162.993 185.886H164.495H167.499L169.753 184.497H173.508H178.766L186.277 182.414L187.779 184.497L189.282 189.357L191.535 192.829L195.291 195.606H199.046H203.553H206.557V199.772L211.815 203.243C211.815 203.938 212.266 205.326 214.069 205.326H218.575L221.58 208.103L220.077 211.575C220.077 212.963 219.477 216.018 217.073 217.129C214.669 218.24 211.064 220.369 209.562 221.295L202.051 224.767H195.291L193.037 226.849L187.779 229.627L182.522 226.849H177.264L167.499 228.238L160.739 229.627V232.404C160.99 232.867 161.791 233.931 162.993 234.487C164.495 235.181 165.246 237.264 167.499 237.264C169.302 237.264 171.756 237.727 172.757 237.958L173.508 240.736L172.757 246.984L177.264 248.373L184.024 246.984L189.282 245.596H191.535L199.046 246.984L206.557 249.761C209.562 250.224 215.871 251.15 217.073 251.15H224.584L235.1 249.761L241.109 251.15L247.118 253.233L253.878 249.761L259.887 245.596L265.145 240.736L269.651 237.958H278.665H288.429L294.438 237.264V232.404L291.434 228.238V223.378C292.936 222.221 296.241 219.629 297.443 218.518C298.945 217.129 302.7 215.741 304.203 215.046C305.404 214.491 307.207 211.112 307.958 209.492L314.718 208.103L319.225 209.492L329.741 211.575L338.754 215.046H351.523H363.541L373.306 212.963L381.568 209.492L390.581 205.326H398.844H405.604L415.368 201.855L419.875 199.772L426.635 197.689L437.902 194.912H442.408L449.919 197.689L455.928 199.772L460.435 201.855V205.326L454.426 209.492L448.417 212.963L442.408 216.435V220.601L444.662 223.378H449.919L453.675 224.072V228.238V234.487L455.928 238.653L462.689 237.264H466.444C467.696 236.801 470.35 236.153 470.951 237.264C471.552 238.375 473.705 240.041 474.706 240.736L482.218 242.818H486.724C487.926 242.818 492.232 241.43 494.235 240.736L500.996 238.653C501.997 237.264 504.751 234.487 507.756 234.487C510.76 234.487 518.021 233.098 521.276 232.404H528.787H546.063L561.085 234.487L570.849 237.264L587.374 234.487L596.387 240.736H614.414L624.179 237.264C627.934 236.338 636.497 234.487 640.703 234.487H661.735L668.495 238.653L693.282 229.627L730.086 226.849L724.077 242.818L730.086 249.761H749.615H770.647L780.411 248.373L801.443 260.176H823.976L844.256 253.233L851.767 251.15L870.545 253.233L887.821 260.176L903.595 269.202H914.861H935.893H950.164L956.173 260.176L962.182 251.15C964.435 250.224 969.993 248.373 974.2 248.373C978.406 248.373 991.976 246.521 998.235 245.596L1020.02 242.818L1035.79 240.736L1051.56 226.849L1071.84 218.518L1092.88 212.963H1100.39C1101.39 213.889 1104.44 215.88 1108.65 216.435C1112.86 216.99 1120.92 215.741 1124.42 215.046C1125.93 214.584 1129.68 212.825 1132.69 209.492C1136.44 205.326 1138.69 201.855 1144.7 201.855H1164.23L1180.01 205.326H1201.79C1207.05 205.326 1214.56 206.02 1225.07 199.772C1235.59 193.523 1246.1 183.109 1258.12 183.109H1283.66V193.523C1283.66 201.855 1274.65 206.02 1283.66 215.046C1290.87 222.267 1301.69 227.775 1306.19 229.627V240.736H1312.95L1324.22 238.653L1334.74 237.264C1336.99 238.19 1343 239.486 1349.01 237.264C1354.06 235.397 1362.64 232.419 1368.08 230.554C1368.47 229.852 1369.31 228.679 1370.79 226.849C1377.55 218.518 1373.79 213.658 1377.55 209.492C1381.31 205.326 1380.55 193.523 1394.83 193.523C1409.1 193.523 1413.6 183.109 1418.86 183.109C1424.12 183.109 1428.63 176.86 1433.13 174.083C1436.74 171.861 1439.14 164.362 1439.89 160.891L1455.67 151.171C1457.67 151.634 1462.43 151.31 1465.43 146.311C1469.19 140.062 1481.2 128.259 1485.71 124.093C1490.22 119.927 1498.48 117.15 1494.72 112.29C1491.72 108.402 1481.45 96.321 1476.7 90.7666L1494.72 74.7977L1504.49 58.8288V45.6371V9.53344C1504.49 6.75623 1509.5 8.37627 1512 9.53344V306H0V150.476Z" fill="white"/>
</g>
<g filter="url(#filter1_bf_252_685)">
<path d="M0 168H9.76938L15.7813 172.17C17.2843 173.792 20.4406 177.591 21.0417 179.815C21.6429 182.039 19.7893 186.765 18.7873 188.85L12.7753 194.41C11.0219 196.032 7.21431 199.692 6.01193 201.36C4.80954 203.028 1.50298 208.078 0 210.395L1.50298 222.21C2.25447 224.527 5.11014 228.465 10.5209 225.685C22.5447 222.905 26.0517 224.295 28.5567 224.295H38.326H52.6044L69.8887 221.515L84.167 224.295C85.9205 223.368 90.1789 221.515 93.1849 221.515C100.399 221.515 105.209 214.102 106.712 210.395L114.227 206.92L115.73 199.97C116.481 198.117 118.435 194.41 120.239 194.41H133.765H139.777H143.535H150.298H159.316L163.074 199.97C164.326 199.97 167.132 200.665 168.334 203.445C171.34 210.395 173.594 212.48 168.334 213.87C163.074 215.26 163.825 213.87 159.316 213.87C155.709 213.87 151.801 217.113 150.298 218.735C146.791 217.808 139.777 216.511 139.777 218.735C139.777 221.515 133.765 220.82 133.765 224.295C143.535 234.72 148.044 235.415 148.044 237.5V243.755C145.038 244.913 139.928 247.925 143.535 250.705C148.044 254.18 153.304 260.435 156.31 263.215C158.715 265.439 161.821 260.435 163.074 257.655C163.324 255.802 164.727 252.651 168.334 254.875C172.843 257.655 172.091 252.095 178.103 257.655C184.115 263.215 187.873 263.215 194.636 263.215H205.909C217.181 263.215 217.932 257.655 221.69 257.655H231.459H248.744C255.357 257.655 264.024 253.022 267.531 250.705L276.549 257.655C279.805 258.582 287.07 259.879 290.076 257.655C293.833 254.875 295.336 259.045 299.093 254.875C302.099 251.539 304.354 246.072 305.105 243.755V237.5C304.354 236.11 304.053 232.774 308.863 230.55C313.672 228.326 320.887 225.453 323.893 224.295C322.891 220.357 322.39 214.287 328.402 221.515C336.668 237.5 339.674 236.805 344.183 240.28C356.207 243.755 353.201 243.755 365.225 243.755C389.272 240.28 387.018 241.67 393.781 237.5C400.545 233.33 403.551 230.55 410.314 230.55C417.078 230.55 417.078 234.72 417.829 237.5C420.234 248.064 421.837 253.485 422.338 254.875C420.083 253.948 416.927 253.207 422.338 257.655C441.125 266.69 447.137 266.69 451.646 267.385C456.155 268.08 456.155 267.385 461.416 267.385C474.191 257.655 474.191 260.435 478.7 257.655C491.475 250.705 496.736 246.535 498.99 250.705C508.759 257.655 503.499 257.655 517.026 257.655C527.847 257.655 536.565 255.802 539.571 254.875L548.589 250.705H559.861C563.618 250.705 569.63 247.23 573.388 247.23C577.145 247.23 583.909 250.705 589.169 250.705H624.489H630.501C640.27 250.705 644.779 246.535 655.3 250.705C665.821 254.875 672.585 251.4 675.59 257.655C678.596 263.91 689.869 267.385 693.626 267.385C697.384 267.385 698.135 263.215 707.153 267.385C716.171 271.555 728.946 277.81 732.704 279.2C736.461 280.59 752.243 286.845 755.249 286.15C758.255 285.455 764.266 279.2 768.024 279.2H783.805H793.575H798.083C803.344 279.2 816.119 286.15 819.877 286.15H828.143C832.652 287.308 843.624 289.903 851.439 291.015C861.209 292.405 870.978 286.15 878.493 286.15H912.31C926.589 286.15 929.594 279.2 941.618 279.2H964.163C973.932 279.2 973.932 286.15 982.199 282.675C1010 267.385 1009.25 261.13 1020.52 267.385C1031.8 273.64 1044.57 267.385 1047.58 267.385C1050.58 267.385 1061.86 257.655 1064.11 257.655C1066.37 257.655 1069.37 249.315 1076.89 245.84C1082.9 243.06 1092.92 237.732 1097.18 235.415H1104.69L1124.98 234.72L1144.52 224.99C1147.03 222.905 1132.24 213.87 1160.3 213.87C1176.08 213.87 1175.33 220.125 1181.34 220.125C1187.36 220.125 1194.12 204.835 1199.38 204.835C1204.64 204.835 1215.91 199.97 1219.67 199.97H1237.71L1242.97 210.395V213.87L1237.71 220.125H1248.98C1251.38 220.125 1255.49 223.368 1257.24 224.99L1261.75 230.55C1263.01 230.55 1266.11 231.523 1268.52 235.415C1271.52 240.28 1272.27 239.585 1277.53 245.84C1281.74 250.844 1289.81 255.802 1293.32 257.655C1297.07 260.898 1305.49 267.385 1309.1 267.385C1312.7 267.385 1322.12 260.898 1326.38 257.655C1329.39 257.655 1336.3 258.628 1339.91 262.52C1344.42 267.385 1349.68 267.385 1360.95 267.385C1372.22 267.385 1377.48 267.385 1381.99 262.52C1385.6 258.628 1390.51 253.485 1392.51 251.4H1402.28C1404.79 249.547 1411.15 245.84 1416.56 245.84H1437.6H1453.38L1437.6 224.99C1435.85 224.063 1434 221.376 1440.61 218.04C1453.38 210.395 1462.4 204.835 1465.41 204.835C1468.41 204.835 1469.17 209.7 1476.68 204.835C1484.19 199.97 1496.22 193.715 1502.98 188.155C1508.39 183.707 1511.25 180.742 1512 179.815V307H0V232.635V210.395V168Z" fill="#E5BBC1"/>
</g>
<defs>
<filter id="filter0_bf_252_685" x="-13" y="-5" width="1538" height="324" filterUnits="userSpaceOnUse" color-interpolation-filters="sRGB">
<feFlood flood-opacity="0" result="BackgroundImageFix"/>
<feGaussianBlur in="BackgroundImage" stdDeviation="6.5"/>
<feComposite in2="SourceAlpha" operator="in" result="effect1_backgroundBlur_252_685"/>
<feBlend mode="normal" in="SourceGraphic" in2="effect1_backgroundBlur_252_685" result="shape"/>
<feGaussianBlur stdDeviation="4" result="effect2_foregroundBlur_252_685"/>
</filter>
<filter id="filter1_bf_252_685" x="-13" y="155" width="1538" height="165" filterUnits="userSpaceOnUse" color-interpolation-filters="sRGB">
<feFlood flood-opacity="0" result="BackgroundImageFix"/>
<feGaussianBlur in="BackgroundImage" stdDeviation="6.5"/>
<feComposite in2="SourceAlpha" operator="in" result="effect1_backgroundBlur_252_685"/>
<feBlend mode="normal" in="SourceGraphic" in2="effect1_backgroundBlur_252_685" result="shape"/>
<feGaussianBlur stdDeviation="4" result="effect2_foregroundBlur_252_685"/>
</filter>
</defs>
</svg>
