<svg width="1512" height="307" viewBox="0 0 1512 307" fill="none" xmlns="http://www.w3.org/2000/svg">
<g filter="url(#filter0_bf_89_1911)">
<path d="M0 150.476L6.00894 154.642L12.0179 158.114L18.7779 160.891L24.7869 162.974L33.0492 165.057L39.8092 166.445L45.8182 169.223L50.3249 172L53.3294 175.471L56.3338 180.331V184.497L53.3294 190.746L50.3249 192.829L43.5648 197.689L36.8048 203.243L33.0492 208.103V211.575V215.046L35.3025 217.129L36.8048 218.518H41.3115H43.5648H48.8227H53.3294H56.3338H61.5917L65.3472 219.906H69.8539L73.6095 221.295H82.6229H86.3785H90.8852H94.6408H96.8942V219.906V217.129H99.1475H101.401L102.903 215.046C101.651 214.352 99.1475 212.686 99.1475 211.575C99.1475 210.464 96.1431 208.798 94.6408 208.103L93.1386 205.326L89.383 203.243V197.689C90.1341 196.995 91.9368 195.606 93.1386 195.606C94.3404 195.606 96.1431 193.755 96.8942 192.829V190.746L94.6408 187.274V184.497H96.8942L102.903 182.414H111.165L121.681 185.886L127.69 184.497H132.948H140.459L145.717 182.414L150.224 180.331L156.984 182.414L162.993 185.886H164.495H167.499L169.753 184.497H173.508H178.766L186.277 182.414L187.779 184.497L189.282 189.357L191.535 192.829L195.291 195.606H199.046H203.553H206.557V199.772L211.815 203.243C211.815 203.938 212.266 205.326 214.069 205.326H218.575L221.58 208.103L220.077 211.575C220.077 212.963 219.477 216.018 217.073 217.129C214.669 218.24 211.064 220.369 209.562 221.295L202.051 224.767H195.291L193.037 226.849L187.779 229.627L182.522 226.849H177.264L167.499 228.238L160.739 229.627V232.404C160.99 232.867 161.791 233.931 162.993 234.487C164.495 235.181 165.246 237.264 167.499 237.264C169.302 237.264 171.756 237.727 172.757 237.958L173.508 240.736L172.757 246.984L177.264 248.373L184.024 246.984L189.282 245.596H191.535L199.046 246.984L206.557 249.761C209.562 250.224 215.871 251.15 217.073 251.15H224.584L235.1 249.761L241.109 251.15L247.118 253.233L253.878 249.761L259.887 245.596L265.145 240.736L269.651 237.958H278.665H288.429L294.438 237.264V232.404L291.434 228.238V223.378C292.936 222.221 296.241 219.629 297.443 218.518C298.945 217.129 302.7 215.741 304.203 215.046C305.404 214.491 307.207 211.112 307.958 209.492L314.718 208.103L319.225 209.492L329.741 211.575L338.754 215.046H351.523H363.541L373.306 212.963L381.568 209.492L390.581 205.326H398.844H405.604L415.368 201.855L419.875 199.772L426.635 197.689L437.902 194.912H442.408L449.919 197.689L455.928 199.772L460.435 201.855V205.326L454.426 209.492L448.417 212.963L442.408 216.435V220.601L444.662 223.378H449.919L453.675 224.072V228.238V234.487L455.928 238.653L462.689 237.264H466.444C467.696 236.801 470.35 236.153 470.951 237.264C471.552 238.375 473.705 240.041 474.706 240.736L482.218 242.818H486.724C487.926 242.818 492.232 241.43 494.235 240.736L500.996 238.653C501.997 237.264 504.751 234.487 507.756 234.487C510.76 234.487 518.021 233.098 521.276 232.404H528.787H546.063L561.085 234.487L570.849 237.264L587.374 234.487L596.387 240.736H614.414L624.179 237.264C627.934 236.338 636.497 234.487 640.703 234.487H661.735L668.495 238.653L693.282 229.627L730.086 226.849L724.077 242.818L730.086 249.761H749.615H770.647L780.411 248.373L801.443 260.176H823.976L844.256 253.233L851.767 251.15L870.545 253.233L887.821 260.176L903.595 269.202H914.861H935.893H950.164L956.173 260.176L962.182 251.15C964.435 250.224 969.993 248.373 974.2 248.373C978.406 248.373 991.976 246.521 998.235 245.596L1020.02 242.818L1035.79 240.736L1051.56 226.849L1071.84 218.518L1092.88 212.963H1100.39C1101.39 213.889 1104.44 215.88 1108.65 216.435C1112.86 216.99 1120.92 215.741 1124.42 215.046C1125.93 214.584 1129.68 212.825 1132.69 209.492C1136.44 205.326 1138.69 201.855 1144.7 201.855H1164.23L1180.01 205.326H1201.79C1207.05 205.326 1214.56 206.02 1225.07 199.772C1235.59 193.523 1246.1 183.109 1258.12 183.109H1283.66V193.523C1283.66 201.855 1274.65 206.02 1283.66 215.046C1290.87 222.267 1301.69 227.775 1306.19 229.627V240.736H1312.95L1324.22 238.653L1334.74 237.264C1336.99 238.19 1343 239.486 1349.01 237.264C1354.06 235.397 1362.64 232.419 1368.08 230.554C1368.47 229.852 1369.31 228.679 1370.79 226.849C1377.55 218.518 1373.79 213.658 1377.55 209.492C1381.31 205.326 1380.55 193.523 1394.83 193.523C1409.1 193.523 1413.6 183.109 1418.86 183.109C1424.12 183.109 1428.63 176.86 1433.13 174.083C1436.74 171.861 1439.14 164.362 1439.89 160.891L1455.67 151.171C1457.67 151.634 1462.43 151.31 1465.43 146.311C1469.19 140.062 1481.2 128.259 1485.71 124.093C1490.22 119.927 1498.48 117.15 1494.72 112.29C1491.72 108.402 1481.45 96.321 1476.7 90.7666L1494.72 74.7977L1504.49 58.8288V45.6371V9.53344C1504.49 6.75623 1509.5 8.37627 1512 9.53344V306H0V150.476Z" fill="white"/>
</g>
<defs>
<filter id="filter0_bf_89_1911" x="-13" y="-5" width="1538" height="324" filterUnits="userSpaceOnUse" color-interpolation-filters="sRGB">
<feFlood flood-opacity="0" result="BackgroundImageFix"/>
<feGaussianBlur in="BackgroundImage" stdDeviation="6.5"/>
<feComposite in2="SourceAlpha" operator="in" result="effect1_backgroundBlur_89_1911"/>
<feBlend mode="normal" in="SourceGraphic" in2="effect1_backgroundBlur_89_1911" result="shape"/>
<feGaussianBlur stdDeviation="4" result="effect2_foregroundBlur_89_1911"/>
</filter>
</defs>
</svg>
