<svg width="29" height="29" viewBox="0 0 29 29" fill="none" xmlns="http://www.w3.org/2000/svg">
<g clip-path="url(#clip0_92_522)">
<path d="M20.7098 0.916992L15.7422 8.34649H18.204L23.7432 0.916992H20.7098Z" fill="#428BC1"/>
<path d="M18.2049 0.916992L13.2812 8.34649H15.7431L20.7107 0.916992H18.2049Z" fill="#E8E8E8"/>
<path d="M15.744 0.916992L10.8203 8.34649H13.2822L18.2059 0.916992H15.744Z" fill="#ED4C5C"/>
<path d="M14.5131 27.2938C19.5146 27.2938 23.5692 23.2393 23.5692 18.2377C23.5692 13.2362 19.5146 9.18164 14.5131 9.18164C9.51158 9.18164 5.45703 13.2362 5.45703 18.2377C5.45703 23.2393 9.51158 27.2938 14.5131 27.2938Z" fill="#FFCE31"/>
<path d="M9.9855 6.67578C9.76569 6.67578 9.58984 6.85163 9.58984 7.07143V10.7642C9.58984 10.984 9.76569 11.1599 9.9855 11.1599H19.0416C19.2614 11.1599 19.4372 10.984 19.4372 10.7642V7.07143C19.4372 6.85163 19.2614 6.67578 19.0416 6.67578H9.9855ZM18.6459 9.57724C18.6459 9.79705 18.4701 9.9729 18.2503 9.9729H10.8208C10.601 9.9729 10.4251 9.79705 10.4251 9.57724V7.9067C10.4251 7.6869 10.601 7.51105 10.8208 7.51105H18.2503C18.4701 7.51105 18.6459 7.6869 18.6459 7.9067V9.57724Z" fill="#FFCE31"/>
<path opacity="0.5" d="M6.73258 19.2925C6.73258 14.3688 10.5133 10.3683 15.349 10.0166C15.1292 10.0166 14.8655 9.97266 14.6457 9.97266C10.0297 9.97266 6.29297 13.7094 6.29297 18.3693C6.29297 19.7321 6.64466 21.051 7.21616 22.194C6.90843 21.2708 6.73258 20.3036 6.73258 19.2925Z" fill="#89664C"/>
<path opacity="0.33" d="M17.9863 25.2271C22.0748 22.5015 23.3057 17.1822 20.9318 13.0498L21.3274 13.5773C23.8772 17.358 22.8221 22.5015 18.9975 25.0953C17.8545 25.8866 16.5796 26.3262 15.3047 26.4581C16.2718 26.1943 17.1511 25.7986 17.9863 25.2271Z" fill="white"/>
<path d="M10.8204 8.34649H13.2823L8.3146 0.916992H5.28125L10.8204 8.34649Z" fill="#ED4C5C"/>
<path d="M13.2841 8.34649H15.7459L10.8222 0.916992H8.31641L13.2841 8.34649Z" fill="#E8E8E8"/>
<path opacity="0.5" d="M14.9106 2.14648L13.6797 3.99287L16.5811 8.34506H18.2077L18.6473 7.7296L14.9106 2.14648Z" fill="#3E4347"/>
<path d="M15.744 8.34649H18.2059L13.2822 0.916992H10.8203L15.744 8.34649Z" fill="#428BC1"/>
<path opacity="0.5" d="M12.2266 15.5128V15.9524C12.6662 15.9524 13.0618 15.8645 13.4575 15.6886V15.0732C13.1058 15.3369 12.7101 15.4688 12.2266 15.5128ZM15.128 12.6553H15.5237V22.151H15.128V12.6553ZM16.7986 22.5466V23.7775H12.2266V24.2172H17.1942V22.5466H16.7986Z" fill="#89664C"/>
<path opacity="0.33" d="M15.5258 22.1492H16.7567V22.5448H15.5258V22.1492ZM13.8992 12.6535H15.1301V12.2578H13.4596C13.4596 13.181 12.7123 13.9284 11.7891 13.9284V15.5549C11.9209 15.5549 12.0528 15.5549 12.1847 15.511V14.28C13.1519 14.324 13.8992 13.5767 13.8992 12.6535ZM13.8992 22.5448V15.511C13.7673 15.5989 13.6354 15.6429 13.5036 15.7308V22.1492H11.833V23.7757H12.2287V22.5448H13.8992Z" fill="white"/>
</g>
<defs>
<clipPath id="clip0_92_522">
<rect width="28.1354" height="28.1354" fill="white" transform="translate(0.445312 0.0371094)"/>
</clipPath>
</defs>
</svg>
