<svg width="29" height="29" viewBox="0 0 29 29" fill="none" xmlns="http://www.w3.org/2000/svg">
<g clip-path="url(#clip0_92_537)">
<path d="M20.7098 1.68164L15.7422 9.11114H18.204L23.7432 1.68164H20.7098Z" fill="#428BC1"/>
<path d="M18.2049 1.68164L13.2812 9.11114H15.7431L20.7107 1.68164H18.2049Z" fill="#E8E8E8"/>
<path d="M15.744 1.68164L10.8203 9.11114H13.2822L18.2059 1.68164H15.744Z" fill="#ED4C5C"/>
<path d="M14.5131 28.0584C19.5146 28.0584 23.5692 24.0039 23.5692 19.0024C23.5692 14.0008 19.5146 9.94629 14.5131 9.94629C9.51158 9.94629 5.45703 14.0008 5.45703 19.0024C5.45703 24.0039 9.51158 28.0584 14.5131 28.0584Z" fill="#B2C1C0"/>
<path d="M9.9855 7.44043C9.76569 7.44043 9.58984 7.61628 9.58984 7.83608V11.5289C9.58984 11.7487 9.76569 11.9245 9.9855 11.9245H19.0416C19.2614 11.9245 19.4372 11.7487 19.4372 11.5289V7.83608C19.4372 7.61628 19.2614 7.44043 19.0416 7.44043H9.9855ZM18.6459 10.3419C18.6459 10.5617 18.4701 10.7375 18.2503 10.7375H10.8208C10.601 10.7375 10.4251 10.5617 10.4251 10.3419V8.67135C10.4251 8.45154 10.601 8.2757 10.8208 8.2757H18.2503C18.4701 8.2757 18.6459 8.45154 18.6459 8.67135V10.3419Z" fill="#B2C1C0"/>
<path opacity="0.5" d="M6.73258 20.0571C6.73258 15.1335 10.5133 11.133 15.349 10.7813C15.1292 10.7813 14.8655 10.7373 14.6457 10.7373C10.0297 10.7373 6.29297 14.474 6.29297 19.134C6.29297 20.4968 6.64466 21.8156 7.21616 22.9586C6.90843 22.0354 6.73258 21.0683 6.73258 20.0571Z" fill="#3E4347"/>
<path opacity="0.33" d="M17.9863 25.9918C22.0748 23.2662 23.3057 17.9468 20.9318 13.8145C21.0636 13.9903 21.1955 14.1661 21.3274 14.386C23.8772 18.1666 22.8221 23.3101 18.9975 25.9039C17.8545 26.6952 16.5796 27.1348 15.3047 27.2667C16.2718 26.959 17.1511 26.5633 17.9863 25.9918Z" fill="white"/>
<path d="M10.8204 9.11114H13.2823L8.3146 1.68164H5.28125L10.8204 9.11114Z" fill="#ED4C5C"/>
<path d="M13.2841 9.11114H15.7459L10.8222 1.68164H8.31641L13.2841 9.11114Z" fill="#E8E8E8"/>
<path opacity="0.5" d="M14.9067 2.91211L13.6758 4.75849L16.5772 9.11069H18.2038L18.6434 8.49522L14.9067 2.91211Z" fill="#3E4347"/>
<path d="M15.744 9.11114H18.2059L13.2822 1.68164H10.8203L15.744 9.11114Z" fill="#428BC1"/>
<path opacity="0.5" d="M14.2921 14.6506C13.3689 14.6506 12.6215 15.3979 12.6215 16.2771H11.4346C11.4346 16.409 11.3906 16.5409 11.3906 16.6728H13.0612C13.0612 15.7496 13.8085 15.0022 14.7317 15.0022C15.0834 15.0022 15.3911 15.1341 15.6549 15.31C15.3472 14.9583 14.8636 14.6506 14.2921 14.6506ZM17.5892 24.5419H11.4346V24.9815H18.0288V23.311H17.5892V24.5419ZM14.2921 19.6182C13.3689 19.6182 12.6215 20.3656 12.6215 21.2887V22.9593H13.0172V21.7284C13.0172 20.8052 13.7645 20.0578 14.6877 20.0578C16.4902 20.0578 17.9849 18.5631 17.9849 16.7607C17.9849 15.7496 17.5452 14.8264 16.7979 14.2109C17.2815 14.7824 17.5892 15.5298 17.5892 16.3211C17.5892 18.1235 16.1385 19.6182 14.2921 19.6182Z" fill="#3E4347"/>
<path opacity="0.33" d="M13.0623 22.9148H17.5903V23.3104H13.0623V22.9148ZM14.7328 18.3867C15.656 18.3867 16.4034 17.6394 16.4034 16.7162C16.4034 16.1447 16.1396 15.6611 15.7 15.3534C15.8758 15.6172 16.0077 15.9249 16.0077 16.2766C16.0077 17.1998 15.2604 17.9471 14.3372 17.9471C12.5347 17.9471 11.0401 19.4418 11.0401 21.2442V24.5414H11.4357V21.6399C11.4357 19.8375 12.8864 18.3867 14.7328 18.3867ZM14.7328 13.4191C15.5241 13.4191 16.2715 13.7268 16.843 14.2104C16.2275 13.507 15.3483 13.0234 14.2932 13.0234C12.4908 13.0234 10.9961 14.5181 10.9961 16.3206H11.4357C11.6555 14.694 13.0183 13.4191 14.7328 13.4191Z" fill="white"/>
</g>
<defs>
<clipPath id="clip0_92_537">
<rect width="28.1354" height="28.1354" fill="white" transform="translate(0.445312 0.802734)"/>
</clipPath>
</defs>
</svg>
