<svg width="29" height="29" viewBox="0 0 29 29" fill="none" xmlns="http://www.w3.org/2000/svg">
<path d="M20.7098 1.44824L15.7422 8.87774H18.204L23.7432 1.44824H20.7098Z" fill="#428BC1"/>
<path d="M18.2049 1.44824L13.2812 8.87774H15.7431L20.7107 1.44824H18.2049Z" fill="#E8E8E8"/>
<path d="M15.744 1.44824L10.8203 8.87774H13.2822L18.2059 1.44824H15.744Z" fill="#ED4C5C"/>
<path d="M14.5131 27.826C19.5146 27.826 23.5692 23.7715 23.5692 18.7699C23.5692 13.7684 19.5146 9.71387 14.5131 9.71387C9.51158 9.71387 5.45703 13.7684 5.45703 18.7699C5.45703 23.7715 9.51158 27.826 14.5131 27.826Z" fill="#D3976E"/>
<path d="M9.9855 7.20801C9.76569 7.20801 9.58984 7.38385 9.58984 7.60366V11.2964C9.58984 11.5162 9.76569 11.6921 9.9855 11.6921H19.0416C19.2614 11.6921 19.4372 11.5162 19.4372 11.2964V7.60366C19.4372 7.38385 19.2614 7.20801 19.0416 7.20801H9.9855ZM18.6459 10.1095C18.6459 10.3293 18.4701 10.5051 18.2503 10.5051H10.8208C10.601 10.5051 10.4251 10.3293 10.4251 10.1095V8.43893C10.4251 8.21912 10.601 8.04328 10.8208 8.04328H18.2503C18.4701 8.04328 18.6459 8.21912 18.6459 8.43893V10.1095Z" fill="#D3976E"/>
<path opacity="0.5" d="M6.73258 19.8247C6.73258 14.901 10.5133 10.9005 15.349 10.5488C15.1292 10.5488 14.8655 10.5049 14.6457 10.5049C10.0297 10.5049 6.29297 14.2416 6.29297 18.9015C6.29297 20.2643 6.64466 21.5832 7.21616 22.7262C6.90843 21.803 6.73258 20.8358 6.73258 19.8247Z" fill="#3E4347"/>
<path opacity="0.33" d="M17.9863 25.7594C22.0748 23.0338 23.3057 17.7144 20.9318 13.582L21.3274 14.1096C23.8772 17.8903 22.8221 23.0338 18.9975 25.6275C17.8545 26.4188 16.5796 26.8584 15.3047 26.9903C16.2718 26.7265 17.1511 26.3309 17.9863 25.7594Z" fill="white"/>
<path d="M10.8204 8.87774H13.2823L8.3146 1.44824H5.28125L10.8204 8.87774Z" fill="#ED4C5C"/>
<path d="M13.2802 8.87774H15.742L10.8183 1.44824H8.3125L13.2802 8.87774Z" fill="#E8E8E8"/>
<path opacity="0.5" d="M14.9067 2.67969L13.6758 4.52607L16.5772 8.87826H18.2038L18.6434 8.2628L14.9067 2.67969Z" fill="#3E4347"/>
<path d="M15.744 8.87774H18.2059L13.2822 1.44824H10.8203L15.744 8.87774Z" fill="#428BC1"/>
<path opacity="0.5" d="M14.2921 14.4162C13.3689 14.4162 12.6215 15.1635 12.6215 16.0428H11.4346C11.4346 16.1747 11.3906 16.3065 11.3906 16.4384H13.0612C13.0612 15.5152 13.8085 14.7679 14.7317 14.7679C15.0834 14.7679 15.3911 14.8998 15.6549 15.0756C15.3472 14.7239 14.8636 14.4162 14.2921 14.4162ZM16.8858 18.9442C17.5892 18.3288 18.0288 17.4495 18.0288 16.4824C18.0288 15.4713 17.5892 14.5481 16.8419 13.9326C17.3254 14.5041 17.6332 15.2515 17.6332 16.0428C17.6332 17.0099 17.1935 17.9331 16.4902 18.5046C17.1935 19.1201 17.6332 19.9993 17.6332 20.9665C17.6332 22.7689 16.1385 24.2636 14.336 24.2636C13.5447 24.2636 12.7974 23.9558 12.2259 23.4723C12.8414 24.1757 13.7206 24.6592 14.7757 24.6592C16.5781 24.6592 18.0728 23.1645 18.0728 21.3621C18.0288 20.4389 17.5892 19.5597 16.8858 18.9442Z" fill="#3E4347"/>
<path opacity="0.33" d="M14.7328 13.1857C15.5241 13.1857 16.2715 13.4934 16.843 13.977C16.2275 13.2736 15.3483 12.79 14.2932 12.79C12.4908 12.79 10.9961 14.2847 10.9961 16.0872H11.4357C11.6555 14.4606 13.0183 13.1857 14.7328 13.1857ZM16.3594 16.4828C16.3594 15.9113 16.0956 15.4277 15.656 15.12C15.8319 15.3838 15.9637 15.6915 15.9637 16.0432C15.9637 16.9664 15.2164 17.7137 14.2932 17.7137V19.3843C14.4251 19.3843 14.557 19.4282 14.6889 19.4282V18.1533C15.6121 18.1533 16.3594 17.406 16.3594 16.4828ZM14.7328 23.077C15.656 23.077 16.4034 22.3297 16.4034 21.4065C16.4034 20.835 16.1396 20.3514 15.7 20.0437C15.8758 20.3075 16.0077 20.6152 16.0077 20.9669C16.0077 21.8901 15.2604 22.6374 14.3372 22.6374C13.9855 22.6374 13.6777 22.5055 13.414 22.3297C13.6777 22.8133 14.1613 23.077 14.7328 23.077ZM12.7106 21.4505C12.6666 21.3186 12.6666 21.1867 12.6666 21.0548H10.9961C10.9961 22.0659 11.4357 22.9891 12.1831 23.6046C11.6995 23.0331 11.3917 22.2857 11.3917 21.4944L12.7106 21.4505Z" fill="white"/>
</svg>
