<svg width="229" height="108" viewBox="0 0 229 108" fill="none" xmlns="http://www.w3.org/2000/svg">
<path d="M82.8722 53.1875H81.1844L80.5625 61.8688L89.3571 64.5025V58.3573L88.9129 57.0892L87.9357 55.8212L86.9585 54.6506L85.626 53.8703L84.2047 53.3826L82.8722 53.1875Z" fill="white"/>
<path d="M154.561 0.904297L159.536 2.56253C157.107 21.3884 151.931 59.4888 150.652 61.2836C149.373 63.0784 137.268 61.056 131.375 59.8204L130.398 34.9469L131.375 34.5567H135.284L134.84 32.4108L134.04 28.4115L133.685 25.3877L134.84 17.2916L137.15 11.0488L141.502 5.48883L144.434 3.44042L150.119 0.904297H154.561Z" fill="white"/>
<path d="M112.543 31.8255C113.313 32.2807 114.923 33.2496 115.208 33.4838L116.451 71.7207L100.639 67.819L96.0196 53.0899L96.7302 51.9194L98.1516 51.2366H99.5729L101.261 51.9194L100.106 49.9686L98.1516 46.5546L97.3521 44.116V40.4093L98.1516 37.483L99.5729 35.0444L101.261 33.4838L103.482 31.8255L106.68 31.2403H110.411L112.543 31.8255Z" fill="white"/>
<path d="M53.2906 23.1442L57.2881 24.6073L67.1487 79.5242L18.2902 107.031H0.523438V95.2286L1.94478 89.5711C2.30011 88.4006 3.20621 85.806 3.98795 84.7915C4.76968 83.7771 5.79423 82.0928 6.20879 81.3775L9.9398 77.9635L14.5591 75.0372L22.0212 72.6961L29.9274 71.6232C31.3487 71.8183 34.298 72.306 34.7244 72.6961C35.1508 73.0863 32.237 70.1925 30.7269 68.6969L27.8842 64.1123L26.0187 59.1376L24.9527 51.7243L26.0187 44.7012L28.6837 37.8732L32.237 32.8009L36.7676 28.9968L40.3209 26.6557L44.0519 24.6073L49.8261 23.1442H53.2906Z" fill="white"/>
<path d="M228.826 107.422H14.2926V106.739L13.8485 100.008C13.9373 98.4801 14.115 95.3847 14.115 95.2286C14.115 95.0726 14.7664 92.1723 15.0922 90.7417L16.4247 86.9375L18.4678 83.2308L21.044 80.1094L24.242 77.2807L29.039 74.647L34.8132 72.8912L39.6102 72.306C40.9723 72.241 43.7854 72.1499 44.1407 72.306C44.4961 72.462 47.1907 72.5661 48.4936 72.5986L47.7829 71.8183L44.1407 68.2092L42.6306 66.3558L41.7422 64.8927L40.6762 63.0394L39.3437 57.772L38.7219 54.8457L38.8107 50.4563L39.3437 46.8472L40.0544 43.2381L41.9199 38.8486L43.9631 35.4346L46.4504 32.3132L49.2931 29.582L51.5139 27.7287L54.9784 25.7778L57.2881 24.8024L59.7755 26.0705L62.3516 28.509L64.2171 31.4353L65.905 34.6543L67.5928 38.8486L68.4812 42.5553L68.8365 45.9693V48.603L68.4812 51.0415L68.037 52.9924L67.504 54.6506H68.037L69.4583 53.8703L70.9685 54.2605L72.1233 54.6506L73.1005 55.5285L74.2553 56.6015L75.0548 58.2597L75.6767 59.6253L76.1208 57.772L76.7427 56.6015L77.3645 55.5285L78.0752 54.6506L79.3189 53.8703C79.7038 53.7728 80.5092 53.5386 80.6514 53.3826C80.7935 53.2265 81.1251 53.3175 81.2732 53.3826L81.0067 54.6506L82.6945 54.2605L84.9154 54.6506C85.4188 54.8132 86.4611 55.2164 86.6032 55.5285C86.7453 55.8407 87.4323 56.6991 87.758 57.0892L88.9129 59.918L89.2682 58.2597L90.1566 60.5032L90.4231 62.4541L91.0449 60.7959L91.5779 59.918L92.9104 58.9425C93.2361 58.8775 93.9586 58.7475 94.2429 58.7475H95.3977L96.9079 59.2352L95.7531 57.4794C95.6346 57.0242 95.38 56.0748 95.3089 55.9187C95.2378 55.7626 95.3385 54.7482 95.3977 54.2605L95.7531 53.1875L96.9079 53.3826L98.6846 53.8703C99.0695 54.0004 99.8572 54.3385 99.9283 54.6506C99.9993 54.9628 100.55 55.366 100.817 55.5285L101.883 56.8941L103.037 59.6253L103.482 61.3811L103.748 62.6492L104.636 60.7959L105.614 59.6253L106.591 58.7475H109.345L110.677 59.6253L109.7 58.7475L108.9 56.3089V54.2605L109.345 53.1875L110.144 52.017L111.921 51.5293L113.342 51.3342H114.852L113.076 49.5784L112.01 47.9202L111.21 46.1644C111.121 45.8067 110.944 45.0329 110.944 44.7988C110.944 44.5647 110.766 43.5307 110.677 43.043L110.944 39.9216L111.388 37.9707L112.543 36.0199L113.964 34.3616L115.208 33.1911L116.984 35.142L118.228 37.2879L118.85 39.0437L119.472 41.5798V48.2128L119.205 50.6514L118.85 53.1875L121.159 52.2121H122.403L123.469 53.1875L123.913 54.6506V56.1138L125.157 54.6506L125.957 53.8703L126.934 53.3826L127.911 53.1875L129.332 53.8703C128.385 51.4317 126.49 46.4765 126.49 46.1644V39.9216C126.49 39.6095 126.845 38.491 127.023 37.9707L128.622 36.0199L130.132 34.7518L131.731 37.9707L132.264 39.9216L132.619 41.97V49.1882L132.264 50.944V53.1875L134.84 52.017L136.172 52.6998L136.883 54.6506V56.6015L138.038 55.0408L139.193 53.8703H141.769L143.101 55.0408L141.769 52.017L140.259 47.4324V40.3118L141.769 36.5076L144.789 34.7518H148.698C148.372 32.5733 147.721 27.9043 147.721 26.6557C147.721 25.095 147.277 21.1933 147.721 20.608C148.076 20.1398 148.52 16.7063 148.698 15.0481L150.652 11.1463L153.317 8.22004L155.627 5.00111L160.069 2.36745L165.399 5.00111L168.685 7.04952L172.505 11.1463C173.423 12.577 175.366 15.5553 175.792 16.0235C176.219 16.4917 177.095 18.6247 177.48 19.6326L179.523 23.5343L180.145 30.7525C180.441 33.2887 181.033 38.4975 181.033 39.0437C181.033 39.7265 180.145 49.871 180.145 50.4563C180.145 50.9245 179.316 56.8941 178.901 59.8204L177.48 64.8927L181.744 63.5271H186.719L189.384 64.8927L191.427 66.4534L192.582 69.087V73.4765L191.427 77.5733L189.384 81.5726L191.427 80.1094L197.29 77.5733C198.682 77.3457 201.572 77.0271 201.998 77.5733C202.424 78.1196 204.071 78.9714 204.841 79.3291L206.084 81.5726L207.772 87.035V94.3508L209.549 97.4721H215.501L217.277 98.35L218.432 100.301L225.894 103.715L228.826 104.983V107.422Z" fill="#E5BBC1"/>
</svg>
