<svg width="265" height="87" viewBox="0 0 265 87" fill="none" xmlns="http://www.w3.org/2000/svg">
<path d="M252.638 73.96L255.889 76.0869L243.576 82.1636L150.949 77.8339L3.88005 83.6827L1.87394 83.9106H0.144531L19.4447 75.2513L20.344 74.5677L22.2117 73.7322L32.4498 71.5294L34.871 71.0736L37.0846 67.8074L38.814 65.7565C39.3213 65.1995 40.3774 64.055 40.5434 63.9335C40.7095 63.812 42.1806 62.2624 42.8954 61.5028L45.1782 59.5279L48.637 57.0972L51.0582 55.73C51.773 55.3755 53.2857 54.6362 53.6177 54.5146C53.9498 54.3931 55.4163 53.7044 56.1081 53.3753L57.6991 52.6916L59.2902 52.2359L61.9189 51.8561H64.6859L66.5537 52.2359L68.0064 52.6916L69.805 53.6791L71.1885 55.73C71.4421 56.1857 71.9494 57.1884 71.9494 57.553C71.9494 57.9176 72.0878 59.2241 72.157 59.8318L71.9494 63.2499L71.1885 66.8199L74.4398 63.2499L76.1 61.7307L78.5212 60.1356L80.804 59.1481L82.6717 58.7683H84.4011L85.6463 59.1481L87.3757 60.5154L89.3127 63.2499L91.2496 59.1481L93.3249 55.73L96.1611 52.6916L99.2049 49.8812L102.594 47.9063L105.984 46.539H107.714L109.72 46.9948L111.864 47.9063L113.663 49.4254L115.254 51.5523L116.914 54.9704L118.574 58.7683L119.612 63.2499L121.203 55.73L123.555 47.9063L125.284 42.2853L127.014 38.2595L128.743 33.5501L130.888 28.6887L133.17 24.8149L135.384 21.0169L137.39 17.9026L138.843 15.9277L140.918 13.2692L143.893 10.2308L146.106 8.33185L148.735 6.20501L152.332 3.62242L155.168 2.78687L157.728 1.95133L162.363 0.963867H165.061L167.62 1.34366L169.972 1.95133L173.293 3.62242L176.198 6.20501L178.619 9.54718L180.694 14.1807L182.216 20.2573L183.254 26.41L183.669 34.0818L183.254 45.8554L182.701 51.2484L190.448 44.5641L198.404 39.6268L205.805 36.8923L208.503 36.2846H214.867L219.226 36.8923L221.854 37.8038L225.797 40.0825L228.634 42.4372L230.986 45.3237L233.13 49.4254L234.652 55.1983L235.689 58.6924L236.105 66.2882L235.689 74.7956L239.425 73.3524L243.576 72.8966H247.104L252.638 73.96Z" fill="white"/>
<path d="M56.1081 82.3914L2.08146 84.0625L50.3665 78.0618L50.989 75.5552L52.0959 73.1245L53.4102 71.9092L54.3787 71.0736L55.8314 70.6179H57.2841L59.2902 71.0736L61.2963 71.9092L62.749 72.5928L64.4784 73.8081L65.6544 74.7196L66.8996 76.6945L68.4214 75.5552L70.6351 75.1754L72.2953 75.5552L75.2007 76.6945L78.8671 79.0493L81.0115 75.1754L82.8793 72.5928L84.4011 70.5419L86.7531 67.9593L90.7654 64.0854L94.8468 61.6548L96.6453 61.0471L98.859 60.5154L102.11 60.1356L104.462 60.5154L107.091 61.0471L109.443 61.8826L112.487 63.7056L114.769 65.5286L116.084 67.4276L116.706 69.0227L117.26 71.3015L117.467 73.6562V74.9475L123.486 71.8332L126.529 70.6938H129.227L134.831 74.6437L138.428 62.4903L144.515 46.8428L149.219 37.2721L152.263 32.3348L157.659 25.8783L161.048 23.6755L164.092 22.8399C165.014 22.9159 166.928 23.083 167.205 23.1438C167.482 23.2045 169.165 24.03 169.972 24.4351L172.462 26.1821L175.16 29.6762L177.789 34.5375L179.518 39.7787L180.971 47.9822L181.386 56.4896V65.5286L186.298 62.0345L189.065 61.199H190.587L192.039 62.0345L194.876 70.8457L200.686 61.199L203.177 58.0087L205.114 55.8059L207.811 53.2993L210.994 51.3244L213.069 50.5648L215.075 50.185L217.081 50.5648L219.018 51.3244L221.301 52.9955L223.584 55.5021L225.451 58.0087L226.766 59.9837L228.218 62.8701L229.879 66.2123L231.055 70.0102L232.231 74.036L232.784 76.8465L233.13 80.1127L241.777 77.4541L245.651 76.5426L250.147 76.0109H255.958L257.065 76.5426L259.071 78.6695L260.731 80.4165L262.184 82.6193L263.706 84.4423L264.536 86.797L234.029 83.9106L211.27 82.6193L175.229 81.328H112.487L56.1081 82.3914Z" fill="#E5BBC1"/>
</svg>
