<svg width="119" height="132" viewBox="0 0 119 132" fill="none" xmlns="http://www.w3.org/2000/svg">
<path d="M22.9846 92.7818L25.4415 98.6911L22.8676 96.7641L21.9317 95.9934L20.5278 95.351L19.3578 94.9656H17.2519L16.316 95.351L15.497 95.8649L14.9121 96.5072L14.5611 98.0488L14.9121 99.7188L15.614 100.875L16.667 102.288L18.0709 103.958L21.5807 106.784L24.1545 108.326L19.3578 107.941L15.731 106.784L12.4552 105.371L10.1153 103.958L9.29638 103.701L8.59442 103.958L8.24344 104.857V105.885L9.29638 107.941L10.1153 109.611L11.8702 111.152L14.0931 112.308L15.965 114.107L11.1683 113.721H8.82841L6.37154 112.822C5.94257 112.394 5.27181 111.152 5.08462 111.152C3.6807 111.152 4.14867 109.182 3.79769 108.84L3.21272 106.784C1.34083 106.784 3.91468 105.988 3.44671 105.885C2.97873 105.782 3.05673 104.986 2.97873 104.857L2.27677 103.444L1.69181 101.132V99.3334L2.27677 97.7919L3.79769 96.6357L5.08462 95.9934H8.24344V95.351L7.30749 93.5525L6.25455 91.6256L5.66958 89.9555V84.4316L6.25455 83.0185L7.30749 80.9631L10.4663 79.8069L14.6781 80.9631L16.901 83.0185L20.1768 88.7994L22.9846 92.7818Z" fill="white"/>
<path d="M150.858 95.7364L145.945 111.409V99.9757L145.243 96.5072L144.307 94.1949L143.722 93.1671L142.669 91.8825L141.85 90.5979L141.265 89.8271L140.446 89.1848L139.042 87.9001L137.17 87.1293L135.415 86.3586L132.958 85.9732H129.449L126.524 86.8724L122.897 89.1848C122.293 89.9266 121.137 91.3875 120.938 91.7953C120.919 91.8852 120.908 91.9209 120.908 91.8825C120.908 91.8644 120.918 91.8348 120.938 91.7953C121.019 91.4039 121.249 89.9857 121.376 89.1848V87.6432L120.908 86.3586L119.504 85.0739L116.813 84.1747L110.847 85.0739L106.752 87.6432L100.434 91.8825L94.3506 95.0941L104.88 78.7792L109.092 69.7867L110.847 61.8219V57.4541L110.379 53.0864L107.22 46.4062L104.178 42.0385L100.083 37.7991L96.9245 35.8722L93.6487 34.3306L89.4369 33.046L84.2892 32.2752H79.3755L72.7068 33.046C70.133 33.7739 64.8917 35.3583 64.5173 35.8722C64.1429 36.386 60.5395 38.3986 58.7846 39.3407L54.1049 43.1946L48.2552 48.2047L43.4585 55.2703L41.8206 58.7388L40.6506 63.235L40.0657 67.6028V70.1721L40.6506 72.6129L36.7898 66.832L33.397 61.1796L31.1742 56.4264L29.1853 49.8748L27.8983 44.2223L27.4304 40.1115V29.3205L28.4833 23.925L31.1742 17.6303L33.397 13.134L36.5559 9.15166L41.3526 4.91235L44.8624 3.49924L49.5421 1.31536L54.2219 0.15918H61.7094C63.3474 0.373286 66.7636 0.8015 67.3251 0.8015C67.8867 0.8015 70.445 1.91485 71.6539 2.47153L76.3336 4.91235L81.0134 9.15166L84.6402 14.0333L86.746 10.5648L90.2558 9.15166L95.1696 8.12395H101.253L106.167 9.79398L111.198 12.2348L115.175 15.061L118.217 18.4011L121.493 23.4112C122.468 25.6807 124.418 30.2968 124.418 30.6052C124.418 30.9135 124.964 34.3306 125.237 36.0006V40.7538L124.418 47.3055L122.429 54.8849L125.705 55.9126L127.343 57.4541L128.63 59.2526L130.034 62.3358V66.4466L129.449 69.7867L132.256 67.8597L134.947 66.4466L136.936 65.5474L138.574 64.9051H144.541L147.349 65.5474L148.87 66.4466L150.858 67.8597L152.262 69.1444L153.432 70.8144L155.187 73.1268L156.942 81.0915L150.858 95.7364Z" fill="white"/>
<path d="M278.615 98.948L280.253 101.003L279.434 103.059L278.615 106.27L277.445 108.711L275.339 111.152L271.596 112.437L267.735 113.593L260.364 114.492L256.27 113.593L252.409 111.152L250.303 109.482H245.623L241.294 111.152L242.23 108.711L241.294 105.5L239.89 103.059L237.317 101.517L233.69 100.618L228.659 101.517L223.979 103.059L219.651 105.5L223.043 98.1772V91.2402L220.938 86.3586L216.726 81.8623L211.461 79.55L208.653 78.1369L204.909 76.9807H201.517L197.656 76.3384L192.859 76.9807L187.36 78.1369L182.915 79.55L178.352 81.8623L172.619 85.2024L167.121 89.8271L164.43 93.4241L161.037 98.1772C161.271 95.4795 161.832 89.8528 162.207 88.9278C162.581 88.0029 163.143 83.8321 163.377 81.8623L165.951 73.3837L171.8 66.0612L177.416 61.0511L180.458 59.1242L184.319 56.1695L187.36 55.1418L191.104 53.8571H201.517L206.898 55.1418L211.461 56.1695L219.651 62.9781L223.043 59.1242L227.723 56.1695L233.69 55.1418L239.89 56.1695L243.4 59.1242L245.623 62.0788L248.314 69.1444L249.016 74.2829H259.077L264.459 75.953L267.735 78.5222L269.841 81.22L271.596 84.3031V92.5248L268.788 96.2503L275.339 97.1495L278.615 98.948Z" fill="white"/>
<path d="M278.147 106.062L280.136 100.908L280.37 102.325L280.136 105.418L278.732 108.511L277.679 110.186L274.638 112.634L254.515 115.856L227.021 118.819L188.062 122.17L172.385 124.103C169.382 124.318 163.307 124.773 163.026 124.876C162.745 124.979 151.833 126.723 146.413 127.582L133.075 130.288C130.697 130.675 125.798 131.474 125.237 131.577C124.535 131.706 122.312 131.963 121.961 131.963H104.88L100.785 131.061L97.7434 130.288L95.8715 129.644L94.1166 128.871L93.2977 128.097L92.1277 127.067L91.5428 126.293L91.3088 125.778V124.876L91.5428 123.974C92.2837 123.501 93.8358 122.531 94.1166 122.428C94.4676 122.299 95.9885 121.912 96.2225 121.526C96.4097 121.216 97.7044 121.053 98.3284 121.01L101.253 120.237L102.657 119.721L93.2977 120.495L79.3755 121.912L64.9853 123.587L51.648 124.618L33.163 125.134L27.6644 124.618L22.7506 124.232L18.4219 123.587L12.9232 122.041L9.64736 120.881L6.60553 119.335L4.73364 117.917L2.86174 115.985L1.34083 113.536L0.755859 110.444V108.511L1.34083 107.351L2.39377 106.062L3.6807 105.289V106.449L4.03168 108.253L4.96762 110.186L6.37154 111.732L7.65847 112.248L8.71141 113.021L11.0513 113.536C11.8702 113.622 13.6251 113.742 14.0931 113.536C14.5611 113.33 13.5081 112.935 12.9232 112.763L11.6363 111.732L10.5833 110.444L9.29638 108.897L8.47743 107.737L7.65847 106.835L7.30749 105.289V104.258L7.65847 103.227H8.71141C9.10139 103.571 9.84207 103.701 10.3493 103.701C11.0513 103.701 13.3912 105.289 13.5081 105.547C13.6017 105.753 16.121 107.007 17.3689 107.351C17.9929 107.437 19.3812 107.66 19.9428 107.866C20.6447 108.124 23.2186 108.253 23.8036 108.253C24.2715 108.253 22.0487 107.05 20.8787 106.449L19.5918 105.547L17.7199 104.258L16.433 103.227L15.38 101.939L14.7951 101.037L14.0931 99.8769L13.5081 98.2017L14.0931 96.6554L15.38 94.9802H19.0068C19.8258 95.195 21.9083 95.1686 22.2827 95.9934C22.657 96.8181 23.3356 95.8601 23.8036 97.4065V96.6554L20.8787 90.4701L16.433 84.6713L14.0931 79.5169L11.7532 70.4966V62.6361L12.4552 54.5179L14.0931 45.4976L16.433 37.8948L19.4748 30.6786L21.9317 25.0087L25.7925 18.5657L30.1212 13.6689L39.2467 6.83931L32.5781 15.3441L30.1212 21.2717L28.3663 29.9054V37.2505L29.5362 43.5647L31.2911 51.0386L34.45 57.7394L36.9068 63.5381L39.4807 66.6308V63.5381L41.0016 58.7703L44.8624 52.1984L51.765 43.5647L57.6147 37.8948L63.5813 34.5444L74.3447 29.9054L81.9493 29.1323L88.033 29.9054L93.9996 31.7095L100.551 34.5444L103.944 37.8948L108.156 42.6626C109.326 45.111 111.666 50.085 111.666 50.3943V58.7703L110.262 66.6308L108.156 73.7181C106.479 76.1235 103.944 80.6509 103.944 81.0632C103.944 81.4756 99.6153 88.1935 97.6264 91.1144C99.3423 90.2123 100.832 89.3103 101.487 89.3103C102.142 89.3103 105.114 86.7331 106.518 85.4445L112.485 82.223L117.281 81.0632L119.387 82.223L121.844 83.5116L122.546 85.4445L121.844 88.9237L125.471 85.4445L129.566 83.5116L133.426 82.7384L137.053 83.5116L141.616 86.7331L144.19 89.3103L146.062 93.8204L146.647 99.8769V108.382L150.39 96.0111L153.549 87.6351L159.282 76.6819L163.494 69.9812L169.46 63.9247L173.555 60.1877L181.511 55.291L191.806 53.6158L181.511 58.7703L173.555 64.9556L168.992 69.9812L166.653 75.9088L165.132 81.0632L163.494 88.9237L163.026 95.1091L166.653 89.9546L168.173 87.6351L170.513 85.4445L173.555 83.5116L177.533 80.4189L182.213 77.7128L187.243 75.9088L191.806 74.8779L197.422 73.7181H202.453L208.536 74.8779L213.567 76.6819C214.581 77.2833 216.796 78.6149 217.545 79.1303C218.293 79.6457 219.573 80.6337 220.119 81.0632L222.341 83.5116L223.745 86.3465L225.032 89.3103V93.8204L223.16 98.846L221.522 102.325L227.021 99.8769L230.414 98.846L233.807 98.0729H236.264L238.721 98.846L240.709 99.8769L242.347 101.552L243.4 103.614L244.336 106.062L243.4 108.124L247.144 107.48C248.236 107.437 250.537 107.377 251.005 107.48C251.473 107.583 252.916 107.952 253.579 108.124L255.685 109.413L259.077 111.861H266.565C268.944 111.045 274.006 109.413 275.222 109.413C276.439 109.413 277.133 107.179 278.147 106.062Z" fill="#E5BBC1"/>
</svg>
