<svg width="283" height="129" viewBox="0 0 283 129" fill="none" xmlns="http://www.w3.org/2000/svg">
<path d="M1.3854 77.9518L3.60204 79.6143L38.9759 68.8082L91.9905 64.1902L181.487 60.7729C188.476 59.3875 203.635 56.7275 208.364 57.1708C213.093 57.6141 223.142 69.0545 227.575 74.7192L279.851 98.4557V99.0099L279.297 101.781L278.927 104.459L277.819 107.692L276.711 109.908L274.217 113.233C273.016 114.372 270.467 116.725 269.876 117.02C269.137 117.39 265.627 119.791 265.258 119.883C264.962 119.957 261.317 121.33 259.532 122.008L255.837 122.654C254.852 122.87 252.826 123.301 252.605 123.301C252.327 123.301 248.541 123.393 247.894 123.301C247.377 123.227 244.231 122.839 242.722 122.654C241.121 122.377 237.864 121.749 237.642 121.453C237.421 121.158 235.087 120.222 233.948 119.791L230.346 117.759C229.515 117.143 227.797 115.838 227.575 115.542C227.353 115.247 226.374 114.311 225.913 113.88C225.389 113.233 224.232 111.811 223.788 111.294C223.234 110.647 222.772 109.724 222.588 109.262C222.44 108.892 221.541 107.384 221.11 106.676C220.863 105.937 220.352 104.385 220.279 104.09C220.205 103.794 219.878 102.427 219.724 101.781L219.447 100.395L219.17 98.7328L217.97 100.395L216.215 102.427L214.46 104.09C213.783 104.521 212.373 105.42 212.151 105.567C211.929 105.715 210.15 106.676 209.288 107.138L206.979 107.969L204.577 108.615L202.453 109.262C201.837 109.416 200.55 109.724 200.329 109.724H193.956L191.739 109.262L188.414 108.615L185.274 107.138C184.689 106.83 183.482 106.177 183.335 106.029C183.187 105.881 182.042 108.431 181.487 109.724C180.995 110.616 179.954 112.476 179.733 112.772C179.511 113.067 177.978 115.234 177.239 116.281L173.637 119.421L171.143 121.73C169.758 122.562 166.858 124.261 166.34 124.409C165.823 124.557 163.723 125.517 162.738 125.979L154.888 127.826L149.531 128.38H144.636L140.295 127.826C139.248 127.611 136.896 127.106 135.862 126.81C134.827 126.515 133.214 125.825 132.537 125.517L127.826 123.301L124.317 121.269L121.176 119.052C120.16 117.974 118.073 115.764 117.851 115.542C117.63 115.321 116.897 114.342 116.558 113.88C116.004 113.172 114.896 111.7 114.896 111.478C114.896 111.257 113.911 109.539 113.418 108.708L112.864 106.583C112.587 106.06 112.033 104.939 112.033 104.644C112.033 104.348 111.786 103.351 111.663 102.889L111.294 100.026V96.4238L109.908 98.8252L108.061 100.395L106.583 101.688L104.274 102.889L102.52 103.72L99.9335 104.367C99.3486 104.459 98.0863 104.644 97.7169 104.644H95.2231L93.2836 104.367L90.1433 103.258L87.1878 101.688L84.5094 98.8252L83.0316 96.4238L79.799 100.672L77.0282 103.258C75.7044 104.151 73.0198 105.955 72.872 106.029C72.7243 106.103 69.3623 107.538 67.6999 108.246L63.4513 109.262L60.2187 109.724H57.6326L52.9223 109.262L48.9508 108.615L45.8106 107.784L41.6544 105.845L38.9759 104.182L35.928 101.504L34.3579 99.7488L32.6031 97.255L31.4024 95.0384L30.2017 92.5447H29.4628L27.0615 93.0988L25.0296 93.653L22.9053 93.9301H19.1185L17.5484 93.653H15.7936L13.6693 93.0988L12.0992 92.5447L8.49712 90.328L6.64992 89.2197L4.80272 87.6496L2.40136 84.5094L0.73888 80.9073C0.584947 79.7682 0.27708 77.3977 0.27708 77.0282C0.27708 76.6588 1.01596 77.49 1.3854 77.9518Z" fill="#E5BBC1"/>
<path d="M31.033 79.7067L38.4218 74.9963L40.0842 77.3977L43.6863 80.4455L45.9953 82.3851L50.6133 84.417L53.8459 85.5253L58.0944 85.9871H62.8971L68.254 85.1559L72.3179 83.8629L74.3498 82.8469C73.6725 82.4775 72.2625 81.6647 72.0408 81.3691C71.8191 81.0736 70.4707 79.7067 69.8241 79.0601L68.5311 77.0282L67.4228 75.2734V73.5185L69.4547 75.2734L73.2415 77.3977L76.5664 79.0601L82.6622 80.9073L86.5413 81.7386L89.8663 82.2004H97.0703L101.319 81.7386L106.029 80.9073L102.335 83.3087L92.8218 85.0635L88.2038 85.6177L88.8503 86.4489L91.4364 88.2038L94.7613 88.9427C95.6542 89.0966 97.5321 89.4045 97.9016 89.4045H102.704L108.061 88.2038L111.109 87.2802L112.679 88.4809L115.819 89.7739L118.775 90.6051L120.899 91.1593H128.38L134.384 88.8503L137.155 87.2802L140.018 91.1593L141.957 93.0989C142.105 93.2466 143.804 94.5766 144.636 95.2231L149.531 97.1627L153.133 98.6405L157.012 99.0099H164.678L171.882 97.6245L175.207 95.7773L179.825 92.8218L183.057 88.3885L184.72 85.3406L185.459 83.0316V81.2768H173.083L168.649 80.4455L176.685 78.9678L185.459 76.9359L197.189 72.4102L204.116 67.8846L207.81 65.0214L207.071 66.4992L204.854 70.2859L203.284 72.7797L201.437 74.9039L199.036 76.9359L205.501 76.4741L209.472 75.7352L212.613 74.3498L213.352 76.4741L214.552 78.2289L216.122 79.8914L217.6 80.9073L219.632 82.2004C220.279 82.3543 221.664 82.6622 222.033 82.6622C222.403 82.6622 223.85 82.9085 224.527 83.0316L228.683 82.6622L231.546 82.2004L230.253 86.0795C230.192 87.0031 230.106 88.9981 230.253 89.5892C230.401 90.1803 230.808 92.6678 230.992 93.8377L234.04 98.6405L238.196 102.704L243.83 106.029L249.649 107.784H258.793L265.812 106.029L273.293 102.704L277.08 100.303L279.574 98.6405L279.758 99.7488L279.204 103.074L278.558 105.752L277.634 108.154L279.204 105.752L280.959 102.335C281.359 101.134 282.252 98.6589 282.622 98.3634C282.991 98.0678 283.022 96.2083 282.991 95.3155C282.96 94.5766 282.917 93.025 282.991 92.7294C283.083 92.36 282.16 89.2197 282.16 88.8503C282.16 88.5548 281.359 86.5721 280.959 85.6177C280.436 84.571 279.352 82.4221 279.204 82.2004C279.056 81.9787 277.726 80.0145 277.08 79.0601L274.309 76.1046L272.185 74.4421L269.876 73.0567L267.752 71.7637L263.411 69.9165L259.624 68.8082L256.484 68.254L252.512 67.8846H248.541L245.493 68.254L241.521 69.27L236.534 70.8401L233.394 72.4102V70.2859L232.747 67.8846L231.731 66.4992L230.253 64.5596L228.868 63.2666L227.206 62.0659L228.868 60.7729L231.731 58.8333L233.394 57.4479L235.149 55.9701L237.458 51.1674L238.566 48.7661L238.935 45.6258V43.2245L238.289 39.9919L237.458 37.2211C237.088 36.4822 236.331 34.9305 236.257 34.635C236.164 34.2656 235.241 33.4343 235.149 33.0649C235.075 32.7693 233.948 31.6487 233.394 31.1253L231.731 29.5552L229.053 27.6156L225.358 25.7684L222.495 24.5678L218.893 23.4594L215.753 23.09H210.673L206.517 23.8289L201.529 25.3066L198.943 19.6727L195.896 15.7012L193.032 12.7457L188.507 9.14364L185.828 7.3888L180.564 4.80272L174.283 2.58608L169.203 1.10832L163.662 0H154.056L150.639 0.36944L146.113 1.57012L139.556 3.32496L134.846 5.81868L131.336 7.94296L127.087 10.9908L123.855 14.2234L120.345 18.1026L117.944 22.3511L116.281 26.3226L115.081 30.8482L114.342 34.5426V37.5905L115.081 42.3009L111.571 40.546L107.045 39.8072L103.72 39.1606H99.8411L93.7454 39.8072L89.4045 40.546L83.0316 43.2245L77.6747 47.6578L73.7033 52.7375L72.1331 56.2472L71.3019 59.8493L67.4228 58.9257L64.1902 58.0021H61.8812L58.1868 57.5403L54.3077 58.0021L50.1515 58.9257L44.2404 60.8652L41.1926 62.6201L40.3613 61.6965L38.4218 59.8493L36.2975 58.0021L33.8961 56.2472L31.033 55.0465L26.2302 53.8459H20.4116L13.7616 55.0465L9.14364 57.5403L4.89508 60.3111L1.20068 65.7603L0 71.3019L1.20068 76.5664L3.6944 79.7067L9.14364 82.3851L16.7172 83.7705L24.4754 82.3851L31.033 79.7067Z" fill="white"/>
</svg>
