<svg width="87" height="41" viewBox="0 0 87 41" fill="none" xmlns="http://www.w3.org/2000/svg">
<path d="M6.91465 28.8119L7.6789 30.6501L6.87826 30.0507L6.58711 29.8109L6.1504 29.6111L5.78647 29.4912H5.1314L4.84025 29.6111L4.5855 29.771L4.40354 29.9708L4.29436 30.4503L4.40354 30.9698L4.6219 31.3294L4.94943 31.769L5.38615 32.2885L6.47793 33.1676L7.27858 33.6472L5.78647 33.5273L4.65829 33.1676L3.63929 32.7281L2.91143 32.2885L2.65668 32.2086L2.43832 32.2885L2.32914 32.5682V32.8879L2.65668 33.5273L2.91143 34.0468L3.45732 34.5263L4.14879 34.886L4.73108 35.4454L3.23897 35.3255H2.51111L1.74686 35.0458C1.61342 34.9126 1.40477 34.5263 1.34654 34.5263C0.909822 34.5263 1.05539 33.9136 0.946215 33.807L0.764251 33.1676C0.181964 33.1676 0.982608 32.9199 0.837036 32.8879C0.691465 32.8559 0.715727 32.6082 0.691465 32.5682L0.473108 32.1287L0.291143 31.4094V30.8499L0.473108 30.3704L0.946215 30.0107L1.34654 29.8109H2.32914V29.6111L2.038 29.0517L1.71047 28.4522L1.5285 27.9327V26.2144L1.71047 25.7749L2.038 25.1355L3.02061 24.7758L4.33075 25.1355L5.02222 25.7749L6.04122 27.5731L6.91465 28.8119Z" fill="white" fill-opacity="0.5"/>
<path d="M46.6921 29.731L45.1636 34.6062V31.0497L44.9452 29.9708L44.6541 29.2515L44.4721 28.9318L44.1446 28.5322L43.8898 28.1326L43.7079 27.8928L43.4531 27.693L43.0164 27.2934L42.4341 27.0536L41.8882 26.8138L41.124 26.694H40.0322L39.1224 26.9737L37.9942 27.693C37.8061 27.9237 37.4467 28.3782 37.3847 28.505C37.3789 28.533 37.3755 28.5441 37.3755 28.5322C37.3755 28.5265 37.3787 28.5173 37.3847 28.505C37.4101 28.3833 37.4816 27.9421 37.5211 27.693V27.2135L37.3755 26.8138L36.9388 26.4142L36.1017 26.1345L34.2457 26.4142L32.972 27.2135L31.0067 28.5322L29.1143 29.5312L32.3897 24.4561L33.6998 21.6589L34.2457 19.1813V17.8226L34.1001 16.4639L33.1175 14.386L32.1713 13.0273L30.8976 11.7086L29.915 11.1092L28.896 10.6296L27.5858 10.23L25.9845 9.99025H24.456L22.3816 10.23C21.581 10.4565 19.9506 10.9493 19.8341 11.1092C19.7177 11.269 18.5968 11.8951 18.0509 12.1881L16.5952 13.3869L14.7755 14.9454L13.2834 17.1433L12.7739 18.2222L12.41 19.6209L12.228 20.9795V21.7788L12.41 22.538L11.209 20.7398L10.1536 18.9815L9.46215 17.5029L8.84347 15.4649L8.44315 13.7066L8.29758 12.4279V9.07115L8.62511 7.39279L9.46215 5.4347L10.1536 4.03606L11.1362 2.79727L12.6283 1.47856L13.7201 1.03899L15.1758 0.359649L16.6316 0H18.9607C19.4702 0.0666017 20.5329 0.199805 20.7076 0.199805C20.8822 0.199805 21.678 0.546134 22.0541 0.719298L23.5098 1.47856L24.9655 2.79727L26.0937 4.31579L26.7488 3.23684L27.8406 2.79727L29.3691 2.47758H31.2615L32.79 2.99708L34.3549 3.75634L35.5922 4.63548L36.5385 5.67446L37.5575 7.23294C37.8607 7.93892 38.4673 9.37485 38.4673 9.47076C38.4673 9.56667 38.6371 10.6296 38.722 11.1491V12.6277L38.4673 14.6657L37.8486 17.0234L38.8676 17.3431L39.3771 17.8226L39.7774 18.3821L40.2141 19.3411V20.6199L40.0322 21.6589L40.9056 21.0595L41.7426 20.6199L42.3613 20.3402L42.8708 20.1404H44.7269L45.6003 20.3402L46.0734 20.6199L46.6921 21.0595L47.1288 21.4591L47.4927 21.9786L48.0386 22.6979L48.5845 25.1754L46.6921 29.731Z" fill="white" fill-opacity="0.5"/>
<path d="M86.4331 30.73L86.9426 31.3694L86.6879 32.0088L86.4331 33.0078L86.0692 33.7671L85.4141 34.5263L84.2495 34.9259L83.0486 35.2856L80.7558 35.5653L79.4821 35.2856L78.2811 34.5263L77.626 34.0068H76.1703L74.8238 34.5263L75.1149 33.7671L74.8238 32.768L74.3871 32.0088L73.5864 31.5292L72.4582 31.2495L70.8933 31.5292L69.4376 32.0088L68.0911 32.768L69.1465 30.4903V28.3324L68.4914 26.8138L67.1813 25.4152L65.5436 24.6959L64.6702 24.2563L63.5056 23.8967H62.4502L61.2492 23.6969L59.7571 23.8967L58.0467 24.2563L56.6637 24.6959L55.2444 25.4152L53.4612 26.4542L51.7507 27.8928L50.9137 29.0117L49.8583 30.4903C49.931 29.6511 50.1057 27.9008 50.2222 27.6131C50.3386 27.3253 50.5133 26.0279 50.5861 25.4152L51.3868 22.7778L53.2064 20.5L54.9533 18.9415L55.8995 18.3421L57.1004 17.423L58.0467 17.1033L59.2112 16.7037H62.4502L64.1243 17.1033L65.5436 17.423L68.0911 19.5409L69.1465 18.3421L70.6022 17.423L72.4582 17.1033L74.3871 17.423L75.4789 18.3421L76.1703 19.2612L77.0074 21.4591L77.2257 23.0575H80.3555L82.0296 23.577L83.0486 24.3762L83.7036 25.2154L84.2495 26.1745V28.732L83.3761 29.8908L85.4141 30.1706L86.4331 30.73Z" fill="white" fill-opacity="0.5"/>
<path d="M86.2875 32.943L86.9062 31.3396L86.979 31.7806L86.9062 32.7426L86.4695 33.7046L86.142 34.2257L85.1958 34.9873L78.9362 35.9894L70.3838 36.9114L58.265 37.9536L53.3884 38.5548C52.4543 38.6217 50.5643 38.7633 50.4769 38.7954C50.3896 38.8274 46.9954 39.3699 45.3091 39.6371L41.1604 40.4789C40.4204 40.5992 38.8967 40.8477 38.722 40.8797C38.5037 40.9198 37.8122 41 37.703 41H32.3897L31.1159 40.7194L30.1697 40.4789L29.5874 40.2785L29.0415 40.038L28.7868 39.7975L28.4228 39.4768L28.2409 39.2363L28.1681 39.0759V38.7954L28.2409 38.5148C28.4714 38.3678 28.9542 38.0658 29.0415 38.0337C29.1507 37.9937 29.6238 37.8734 29.6966 37.7532C29.7548 37.657 30.1576 37.6062 30.3517 37.5928L31.2615 37.3523L31.6982 37.192L28.7868 37.4325L24.456 37.8734L19.9797 38.3945L15.8309 38.7152L10.0808 38.8755L8.37036 38.7152L6.84186 38.5949L5.49533 38.3945L3.78486 37.9135L2.76586 37.5527L1.81964 37.0717L1.23736 36.6308L0.655072 36.0295L0.181964 35.2679L0 34.3059V33.7046L0.181964 33.3439L0.5095 32.943L0.909822 32.7025V33.0633L1.019 33.6245L1.31014 34.2257L1.74686 34.7067L2.14718 34.8671L2.47472 35.1076L3.20257 35.2679C3.45732 35.2946 4.00322 35.3321 4.14879 35.2679C4.29436 35.2038 3.96683 35.0809 3.78486 35.0274L3.38454 34.7067L3.057 34.3059L2.65668 33.8249L2.40193 33.4641L2.14718 33.1835L2.038 32.7025V32.3818L2.14718 32.0612H2.47472C2.59603 32.1681 2.82643 32.2086 2.98422 32.2086C3.20257 32.2086 3.93043 32.7025 3.96683 32.7827C3.99594 32.8468 4.7796 33.237 5.16779 33.3439C5.36189 33.3706 5.79375 33.4401 5.96843 33.5042C6.18679 33.5844 6.98743 33.6245 7.1694 33.6245C7.31497 33.6245 6.62351 33.2503 6.25958 33.0633L5.85926 32.7827L5.27697 32.3818L4.87665 32.0612L4.54911 31.6603L4.36715 31.3797L4.14879 31.019L3.96683 30.4979L4.14879 30.0169L4.54911 29.4958H5.67729C5.93204 29.5626 6.57983 29.5544 6.69629 29.8109C6.81275 30.0675 7.02383 29.7695 7.1694 30.2505V30.0169L6.25958 28.0928L4.87665 26.289L4.14879 24.6856L3.42093 21.8797V19.4346L3.63929 16.9092L4.14879 14.1033L4.87665 11.7383L5.82286 9.4936L6.58711 7.72988L7.78808 5.72566L9.13462 4.20245L11.9733 2.07797L9.89887 4.72355L9.13462 6.56743L8.58872 9.25309V11.5379L8.95265 13.502L9.49854 15.8269L10.4812 17.9113L11.2454 19.7151L12.046 20.6772V19.7151L12.5192 18.232L13.7201 16.1877L15.8673 13.502L17.6869 11.7383L19.543 10.6961L22.8911 9.25309L25.2567 9.01259L27.1491 9.25309L29.0051 9.81428L31.0431 10.6961L32.0985 11.7383L33.4087 13.2215C33.7726 13.9831 34.5005 15.5303 34.5005 15.6265V18.232L34.0637 20.6772L33.4087 22.8818C32.887 23.6301 32.0985 25.0384 32.0985 25.1666C32.0985 25.2949 30.752 27.3846 30.1333 28.2932C30.6671 28.0126 31.1305 27.732 31.3343 27.732C31.5381 27.732 32.4625 26.9303 32.8992 26.5295L34.7552 25.5274L36.2473 25.1666L36.9024 25.5274L37.6666 25.9282L37.885 26.5295L37.6666 27.6118L38.7948 26.5295L40.0686 25.9282L41.2695 25.6877L42.3977 25.9282L43.817 26.9303L44.6177 27.732L45.2 29.135L45.3819 31.019V33.6645L46.5465 29.8164L47.5291 27.2109L49.3124 23.8038L50.6225 21.7194L52.4785 19.8354L53.7523 18.6729L56.227 17.1497L59.4296 16.6286L56.227 18.232L53.7523 20.1561L52.333 21.7194L51.6051 23.5633L51.132 25.1666L50.6225 27.6118L50.4769 29.5358L51.6051 27.9325L52.0782 27.2109L52.8061 26.5295L53.7523 25.9282L54.9897 24.9662L56.4454 24.1244L58.0103 23.5633L59.4296 23.2426L61.1764 22.8818H62.7413L64.6338 23.2426L66.1987 23.8038C66.5141 23.9908 67.2031 24.405 67.436 24.5654C67.6689 24.7257 68.0668 25.033 68.2367 25.1666L68.9281 25.9282L69.3648 26.8101L69.7652 27.732V29.135L69.1829 30.6983L68.6734 31.7806L70.3838 31.019L71.4392 30.6983L72.4946 30.4578H73.2589L74.0231 30.6983L74.6418 31.019L75.1513 31.5401L75.4789 32.1814L75.77 32.943L75.4789 33.5844L76.6434 33.3839C76.9831 33.3706 77.6988 33.3519 77.8444 33.3839C77.99 33.416 78.4388 33.5309 78.645 33.5844L79.3001 33.9852L80.3555 34.7468H82.6846C83.4246 34.493 84.9992 33.9852 85.3777 33.9852C85.7562 33.9852 85.9721 33.2904 86.2875 32.943Z" fill="#E5BBC1" fill-opacity="0.5"/>
</svg>
