<svg width="281" height="132" viewBox="0 0 281 132" fill="none" xmlns="http://www.w3.org/2000/svg">
<path d="M22.7092 92.7818L25.1661 98.6911L22.5922 96.7641L21.6563 95.9934L20.2524 95.351L19.0824 94.9656H16.9765L16.0406 95.351L15.2216 95.8649L14.6367 96.5072L14.2857 98.0488L14.6367 99.7188L15.3386 100.875L16.3916 102.288L17.7955 103.958L21.3053 106.784L23.8792 108.326L19.0824 107.941L15.4556 106.784L12.1798 105.371L9.83994 103.958L9.02099 103.701L8.31903 103.958L7.96805 104.857V105.885L9.02099 107.941L9.83994 109.611L11.5948 111.152L13.8177 112.308L15.6896 114.107L10.8929 113.721H8.55302L6.09615 112.822C5.66718 112.394 4.99642 111.152 4.80923 111.152C3.4053 111.152 3.87328 109.182 3.5223 108.84L2.93733 106.784C1.06544 106.784 3.63929 105.988 3.17132 105.885C2.70334 105.782 2.78134 104.986 2.70334 104.857L2.00138 103.444L1.41642 101.132V99.3334L2.00138 97.7919L3.5223 96.6357L4.80923 95.9934H7.96805V95.351L7.0321 93.5525L5.97916 91.6256L5.39419 89.9555V84.4316L5.97916 83.0185L7.0321 80.9631L10.1909 79.8069L14.4027 80.9631L16.6256 83.0185L19.9014 88.7994L22.7092 92.7818Z" fill="white"/>
<path d="M150.583 95.7364L145.669 111.409V99.9757L144.967 96.5072L144.031 94.1949L143.446 93.1671L142.394 91.8825L141.575 90.5979L140.99 89.8271L140.171 89.1848L138.767 87.9001L136.895 87.1293L135.14 86.3586L132.683 85.9732H129.173L126.248 86.8724L122.622 89.1848C122.017 89.9266 120.862 91.3875 120.662 91.7953C120.644 91.8852 120.633 91.9209 120.633 91.8825C120.633 91.8644 120.643 91.8348 120.662 91.7953C120.744 91.4039 120.974 89.9857 121.101 89.1848V87.6432L120.633 86.3586L119.229 85.0739L116.538 84.1747L110.571 85.0739L106.477 87.6432L100.159 91.8825L94.0752 95.0941L104.605 78.7792L108.816 69.7867L110.571 61.8219V57.4541L110.103 53.0864L106.945 46.4062L103.903 42.0385L99.8079 37.7991L96.6491 35.8722L93.3733 34.3306L89.1615 33.046L84.0138 32.2752H79.1001L72.4314 33.046C69.8576 33.7739 64.6163 35.3583 64.2419 35.8722C63.8675 36.386 60.2641 38.3986 58.5092 39.3407L53.8295 43.1946L47.9798 48.2047L43.1831 55.2703L41.5452 58.7388L40.3752 63.235L39.7903 67.6028V70.1721L40.3752 72.6129L36.5145 66.832L33.1216 61.1796L30.8988 56.4264L28.9099 49.8748L27.6229 44.2223L27.155 40.1115V29.3205L28.2079 23.925L30.8988 17.6303L33.1216 13.134L36.2805 9.15166L41.0772 4.91235L44.587 3.49924L49.2667 1.31536L53.9465 0.15918H61.4341C63.072 0.373286 66.4882 0.8015 67.0497 0.8015C67.6113 0.8015 70.1696 1.91485 71.3785 2.47153L76.0582 4.91235L80.738 9.15166L84.3648 14.0333L86.4707 10.5648L89.9805 9.15166L94.8942 8.12395H100.978L105.892 9.79398L110.922 12.2348L114.9 15.061L117.942 18.4011L121.218 23.4112C122.193 25.6807 124.143 30.2968 124.143 30.6052C124.143 30.9135 124.689 34.3306 124.961 36.0006V40.7538L124.143 47.3055L122.154 54.8849L125.429 55.9126L127.067 57.4541L128.354 59.2526L129.758 62.3358V66.4466L129.173 69.7867L131.981 67.8597L134.672 66.4466L136.661 65.5474L138.299 64.9051H144.265L147.073 65.5474L148.594 66.4466L150.583 67.8597L151.987 69.1444L153.157 70.8144L154.912 73.1268L156.667 81.0915L150.583 95.7364Z" fill="white"/>
<path d="M278.34 98.948L279.978 101.003L279.159 103.059L278.34 106.27L277.17 108.711L275.064 111.152L271.32 112.437L267.46 113.593L260.089 114.492L255.994 113.593L252.133 111.152L250.027 109.482H245.348L241.019 111.152L241.955 108.711L241.019 105.5L239.615 103.059L237.041 101.517L233.414 100.618L228.384 101.517L223.704 103.059L219.375 105.5L222.768 98.1772V91.2402L220.662 86.3586L216.45 81.8623L211.186 79.55L208.378 78.1369L204.634 76.9807H201.241L197.38 76.3384L192.584 76.9807L187.085 78.1369L182.639 79.55L178.077 81.8623L172.344 85.2024L166.845 89.8271L164.154 93.4241L160.761 98.1772C160.995 95.4795 161.557 89.8528 161.931 88.9278C162.306 88.0029 162.867 83.8321 163.101 81.8623L165.675 73.3837L171.525 66.0612L177.141 61.0511L180.182 59.1242L184.043 56.1695L187.085 55.1418L190.829 53.8571H201.241L206.623 55.1418L211.186 56.1695L219.375 62.9781L222.768 59.1242L227.448 56.1695L233.414 55.1418L239.615 56.1695L243.125 59.1242L245.348 62.0788L248.039 69.1444L248.741 74.2829H258.802L264.184 75.953L267.46 78.5222L269.565 81.22L271.32 84.3031V92.5248L268.512 96.2503L275.064 97.1495L278.34 98.948Z" fill="white"/>
<path d="M277.872 106.062L279.861 100.908L280.095 102.325L279.861 105.418L278.457 108.511L277.404 110.186L274.362 112.634L254.239 115.856L226.746 118.819L187.787 122.17L172.11 124.103C169.107 124.318 163.031 124.773 162.75 124.876C162.47 124.979 151.558 126.723 146.137 127.582L132.8 130.288C130.421 130.675 125.523 131.474 124.961 131.577C124.26 131.706 122.037 131.963 121.686 131.963H104.605L100.51 131.061L97.468 130.288L95.5961 129.644L93.8412 128.871L93.0223 128.097L91.8524 127.067L91.2674 126.293L91.0334 125.778V124.876L91.2674 123.974C92.0083 123.501 93.5605 122.531 93.8412 122.428C94.1922 122.299 95.7131 121.912 95.9471 121.526C96.1343 121.216 97.429 121.053 98.053 121.01L100.978 120.237L102.382 119.721L93.0223 120.495L79.1001 121.912L64.7099 123.587L51.3726 124.618L32.8877 125.134L27.389 124.618L22.4752 124.232L18.1465 123.587L12.6478 122.041L9.37197 120.881L6.33014 119.335L4.45825 117.917L2.58635 115.985L1.06544 113.536L0.480469 110.444V108.511L1.06544 107.351L2.11838 106.062L3.4053 105.289V106.449L3.75629 108.253L4.69223 110.186L6.09615 111.732L7.38308 112.248L8.43602 113.021L10.7759 113.536C11.5948 113.622 13.3497 113.742 13.8177 113.536C14.2857 113.33 13.2328 112.935 12.6478 112.763L11.3609 111.732L10.3079 110.444L9.02099 108.897L8.20204 107.737L7.38308 106.835L7.0321 105.289V104.258L7.38308 103.227H8.43602C8.826 103.571 9.56668 103.701 10.0739 103.701C10.7759 103.701 13.1158 105.289 13.2328 105.547C13.3263 105.753 15.8456 107.007 17.0935 107.351C17.7175 107.437 19.1058 107.66 19.6674 107.866C20.3694 108.124 22.9432 108.253 23.5282 108.253C23.9962 108.253 21.7733 107.05 20.6033 106.449L19.3164 105.547L17.4445 104.258L16.1576 103.227L15.1046 101.939L14.5197 101.037L13.8177 99.8769L13.2328 98.2017L13.8177 96.6554L15.1046 94.9802H18.7314C19.5504 95.195 21.6329 95.1686 22.0073 95.9934C22.3816 96.8181 23.0602 95.8601 23.5282 97.4065V96.6554L20.6033 90.4701L16.1576 84.6713L13.8177 79.5169L11.4779 70.4966V62.6361L12.1798 54.5179L13.8177 45.4976L16.1576 37.8948L19.1994 30.6786L21.6563 25.0087L25.5171 18.5657L29.8458 13.6689L38.9713 6.83931L32.3027 15.3441L29.8458 21.2717L28.0909 29.9054V37.2505L29.2609 43.5647L31.0158 51.0386L34.1746 57.7394L36.6314 63.5381L39.2053 66.6308V63.5381L40.7262 58.7703L44.587 52.1984L51.4896 43.5647L57.3393 37.8948L63.306 34.5444L74.0693 29.9054L81.6739 29.1323L87.7576 29.9054L93.7242 31.7095L100.276 34.5444L103.669 37.8948L107.88 42.6626C109.05 45.111 111.39 50.085 111.39 50.3943V58.7703L109.986 66.6308L107.88 73.7181C106.204 76.1235 103.669 80.6509 103.669 81.0632C103.669 81.4756 99.3399 88.1935 97.351 91.1144C99.067 90.2123 100.557 89.3103 101.212 89.3103C101.867 89.3103 104.839 86.7331 106.243 85.4445L112.209 82.223L117.006 81.0632L119.112 82.223L121.569 83.5116L122.271 85.4445L121.569 88.9237L125.195 85.4445L129.29 83.5116L133.151 82.7384L136.778 83.5116L141.341 86.7331L143.914 89.3103L145.786 93.8204L146.371 99.8769V108.382L150.115 96.0111L153.274 87.6351L159.007 76.6819L163.218 69.9812L169.185 63.9247L173.28 60.1877L181.235 55.291L191.531 53.6158L181.235 58.7703L173.28 64.9556L168.717 69.9812L166.377 75.9088L164.856 81.0632L163.218 88.9237L162.75 95.1091L166.377 89.9546L167.898 87.6351L170.238 85.4445L173.28 83.5116L177.258 80.4189L181.937 77.7128L186.968 75.9088L191.531 74.8779L197.146 73.7181H202.177L208.261 74.8779L213.292 76.6819C214.305 77.2833 216.521 78.6149 217.269 79.1303C218.018 79.6457 219.297 80.6337 219.843 81.0632L222.066 83.5116L223.47 86.3465L224.757 89.3103V93.8204L222.885 98.846L221.247 102.325L226.746 99.8769L230.139 98.846L233.531 98.0729H235.988L238.445 98.846L240.434 99.8769L242.072 101.552L243.125 103.614L244.061 106.062L243.125 108.124L246.869 107.48C247.961 107.437 250.261 107.377 250.729 107.48C251.197 107.583 252.64 107.952 253.303 108.124L255.409 109.413L258.802 111.861H266.29C268.668 111.045 273.73 109.413 274.947 109.413C276.164 109.413 276.858 107.179 277.872 106.062Z" fill="#E5BBC1"/>
</svg>
