<svg width="497" height="308" viewBox="0 0 497 308" fill="none" xmlns="http://www.w3.org/2000/svg">
<path d="M-386.653 149.598L-379.697 154.814L-268.701 120.907L-102.351 106.417L178.473 95.6936C200.402 91.3465 247.969 83 262.807 84.3911C277.645 85.7822 309.176 121.68 323.087 139.455L487.118 213.935V215.674L485.379 224.368L484.22 232.773L480.742 242.916L477.265 249.871L469.44 260.305C465.672 263.879 457.674 271.259 455.819 272.187C453.501 273.346 442.488 280.881 441.329 281.171C440.401 281.403 428.963 285.711 423.36 287.836L411.768 289.865C408.677 290.541 402.32 291.894 401.625 291.894C400.755 291.894 388.873 292.183 386.845 291.894C385.222 291.662 375.349 290.445 370.615 289.865C365.592 288.996 355.372 287.025 354.676 286.097C353.98 285.17 346.658 282.233 343.084 280.881L331.781 274.505C329.173 272.573 323.782 268.477 323.087 267.55C322.391 266.622 319.319 263.686 317.87 262.333C316.228 260.305 312.596 255.841 311.205 254.219C309.466 252.19 308.017 249.292 307.437 247.843C306.974 246.684 304.153 241.95 302.8 239.728C302.028 237.41 300.424 232.541 300.192 231.614C299.96 230.686 298.936 226.397 298.453 224.368L297.584 220.021L296.714 214.805L292.947 220.021L287.441 226.397L281.934 231.614C279.809 232.966 275.385 235.787 274.689 236.25C273.993 236.714 268.41 239.728 265.705 241.177L258.46 243.785L250.925 245.814L244.259 247.843C242.327 248.326 238.289 249.292 237.594 249.292H217.597L210.641 247.843L200.208 245.814L190.355 241.177C188.519 240.211 184.733 238.163 184.269 237.7C183.805 237.236 180.212 245.235 178.473 249.292C176.927 252.093 173.662 257.928 172.966 258.855C172.271 259.783 167.46 266.584 165.142 269.868L153.839 279.722L146.014 286.967C141.667 289.575 132.567 294.908 130.944 295.371C129.321 295.835 122.733 298.849 119.642 300.298L95.008 306.094L78.1992 307.833H62.8393L49.2184 306.094C45.9339 305.418 38.5534 303.834 35.3076 302.906C32.0617 301.979 26.9998 299.815 24.8745 298.849L10.0943 291.894L-0.918427 285.518L-10.7719 278.562C-13.9598 275.181 -20.5094 268.245 -21.205 267.55C-21.9005 266.854 -24.1997 263.782 -25.2623 262.333C-27.0012 260.111 -30.4789 255.494 -30.4789 254.798C-30.4789 254.103 -33.5701 248.712 -35.1158 246.104L-36.8546 239.438C-37.724 237.796 -39.4629 234.28 -39.4629 233.352C-39.4629 232.425 -40.2357 229.295 -40.6221 227.846L-41.7813 218.862V207.559L-46.1285 215.094L-51.9246 220.021L-56.5616 224.079L-63.8068 227.846L-69.3131 230.454L-77.4277 232.483C-79.2632 232.773 -83.2239 233.352 -84.3831 233.352H-92.2079L-98.2939 232.483L-108.147 229.005L-117.421 224.079L-125.826 215.094L-130.463 207.559L-140.606 220.891L-149.3 229.005C-153.454 231.807 -161.878 237.468 -162.341 237.7C-162.805 237.931 -173.354 242.433 -178.571 244.655L-191.902 247.843L-202.045 249.292H-210.16L-224.94 247.843L-237.402 245.814L-247.255 243.206L-260.297 237.12L-268.701 231.903L-278.265 223.499L-283.191 217.993L-288.698 210.168L-292.465 203.212L-296.233 195.388H-298.551L-306.086 197.126L-312.462 198.865L-319.128 199.735H-331.01L-335.936 198.865H-341.443L-348.108 197.126L-353.035 195.388L-364.338 188.432L-370.134 184.954L-375.93 180.028L-383.465 170.174L-388.682 158.872C-389.165 155.297 -390.131 147.859 -390.131 146.7C-390.131 145.541 -387.812 148.149 -386.653 149.598Z" fill="#E5BBC1"/>
<path d="M-293.625 155.104L-270.44 140.324L-265.223 147.859L-253.921 157.423L-246.676 163.509L-232.185 169.885L-222.042 173.362L-208.711 174.811H-193.641L-176.832 172.203L-164.08 168.146L-157.705 164.958C-159.83 163.799 -164.254 161.248 -164.95 160.321C-165.645 159.393 -169.876 155.104 -171.905 153.076L-175.962 146.7L-179.44 141.194V135.687L-173.064 141.194L-161.182 147.859L-150.749 153.076L-131.622 158.872L-119.45 161.48L-109.017 162.929H-86.4118L-73.0806 161.48L-58.3004 158.872L-69.8927 166.407L-99.743 171.913L-114.233 173.652L-112.205 176.26L-104.09 181.767L-93.657 184.085C-90.8555 184.568 -84.9627 185.534 -83.8035 185.534H-68.7335L-51.9246 181.767L-42.361 178.869L-37.4342 182.636L-27.5807 186.693L-18.3069 189.302L-11.6413 191.04H11.8331L30.6707 183.795L39.3649 178.869L48.3489 191.04L54.4349 197.126C54.8986 197.59 60.2311 201.763 62.8393 203.792L78.1992 209.878L89.5017 214.515L101.674 215.674H125.728L148.333 211.327L158.766 205.531L173.256 196.257L183.399 182.346L188.616 172.783L190.934 165.537V160.031H152.1L138.189 157.423L163.403 152.786L190.934 146.41L227.74 132.209L249.476 118.009L261.068 109.025L258.75 113.662L251.794 125.544L246.867 133.369L241.071 140.034L233.536 146.41L253.823 144.961L266.285 142.643L276.138 138.295L278.456 144.961L282.224 150.467L287.151 155.684L291.788 158.872L298.163 162.929C300.192 163.412 304.539 164.378 305.698 164.378C306.858 164.378 311.398 165.151 313.523 165.537L326.565 164.378L335.549 162.929L331.491 175.101C331.298 177.999 331.028 184.259 331.491 186.114C331.955 187.969 333.23 195.774 333.81 199.445L343.373 214.515L356.415 227.267L374.093 237.7L392.351 243.206H421.042L443.067 237.7L466.542 227.267L478.424 219.732L486.249 214.515L486.828 217.993L485.09 228.426L483.061 236.83L480.163 244.365L485.09 236.83L490.596 226.107C491.852 222.34 494.653 214.573 495.812 213.646C496.972 212.718 497.068 206.883 496.972 204.082C496.875 201.763 496.74 196.895 496.972 195.967C497.262 194.808 494.363 184.955 494.363 183.795C494.363 182.868 491.852 176.647 490.596 173.652C488.954 170.368 485.553 163.625 485.09 162.929C484.626 162.234 480.453 156.07 478.424 153.076L469.73 143.802L463.064 138.585L455.819 134.238L449.153 130.181L435.532 124.385L423.65 120.907L413.797 119.168L401.335 118.009H388.873L379.31 119.168L366.848 122.356L351.198 127.283L341.345 132.209V125.544L339.316 118.009L336.128 113.662L331.491 107.576L327.144 103.518L321.928 99.751L327.144 95.6937L336.128 89.6077L341.345 85.2606L346.851 80.6237L354.096 65.5536L357.574 58.0186L358.733 48.1652V40.6301L356.705 30.4869L354.096 21.7926C352.937 19.4742 350.561 14.6054 350.329 13.678C350.039 12.5188 347.141 9.9105 346.851 8.75127C346.619 7.82388 343.084 4.30754 341.345 2.6653L336.128 -2.26144L327.724 -8.3474L316.132 -14.1436L307.147 -17.9111L295.845 -21.3888L285.992 -22.548H270.052L257.011 -20.2295L241.361 -15.5926L233.246 -33.2709L223.683 -45.7326L214.699 -55.0065L200.498 -66.309L192.094 -71.8154L175.575 -79.93L155.868 -86.8854L139.928 -91.5223L122.54 -95H92.3997L81.6768 -93.8408L67.4763 -90.0733L46.8999 -84.5669L32.1197 -76.7421L21.107 -70.0765L7.77582 -60.5128L-2.36746 -50.3696L-13.3802 -38.1976L-20.9152 -24.8665L-26.1317 -12.4047L-29.8992 1.79588L-32.2177 13.3882V22.9519L-29.8992 37.7321L-40.9119 32.2257L-55.1125 29.9072L-65.5456 27.8786H-77.7176L-96.8449 29.9072L-110.466 32.2257L-130.463 40.6301L-147.271 54.5409L-159.733 70.4804L-164.66 81.4931L-167.268 92.7956L-179.44 89.8975L-189.583 86.9994H-196.829L-208.421 85.5504L-220.593 86.9994L-233.634 89.8975L-252.182 95.9835L-261.746 101.49L-264.354 98.5918L-270.44 92.7956L-277.105 86.9994L-284.64 81.4931L-293.625 77.7256L-308.695 73.9581H-326.952L-347.819 77.7256L-362.309 85.5504L-375.64 94.2446L-387.232 111.343L-391 128.732L-387.232 145.251L-379.408 155.104L-362.309 163.509L-338.545 167.856L-314.201 163.509L-293.625 155.104Z" fill="white"/>
</svg>
