<svg width="150" height="49" viewBox="0 0 150 49" fill="none" xmlns="http://www.w3.org/2000/svg">
<path d="M143.25 41.4137L145.094 42.6203L138.108 46.0679L85.5573 43.6115L2.11931 46.9298L0.981162 47.0591H0L10.9498 42.1463L11.46 41.7584L12.5196 41.2844L18.3281 40.0347L19.7017 39.7761L20.9576 37.923L21.9388 36.7595C22.2266 36.4435 22.8257 35.7942 22.9199 35.7252C23.0141 35.6563 23.8488 34.7772 24.2543 34.3462L25.5494 33.2258L27.5118 31.8467L28.8854 31.071C29.2909 30.8699 30.1491 30.4505 30.3375 30.3815C30.5259 30.3126 31.3579 29.9219 31.7504 29.7351L32.6531 29.3473L33.5557 29.0887L35.0471 28.8732H36.617L37.6766 29.0887L38.5008 29.3473L39.5212 29.9075L40.3061 31.071C40.45 31.3296 40.7378 31.8985 40.7378 32.1053C40.7378 32.3122 40.8163 33.0534 40.8556 33.3981L40.7378 35.3374L40.3061 37.3628L42.1507 35.3374L43.0926 34.4755L44.4662 33.5705L45.7614 33.0103L46.821 32.7948H47.8022L48.5086 33.0103L49.4898 33.786L50.5887 35.3374L51.6876 33.0103L52.865 31.071L54.4741 29.3473L56.2009 27.7528L58.124 26.6323L60.0471 25.8566H61.0283L62.1664 26.1152L63.383 26.6323L64.4035 27.4942L65.3061 28.7009L66.248 30.6401L67.19 32.7948L67.7786 35.3374L68.6813 31.071L70.0157 26.6323L70.9969 23.4433L71.978 21.1593L72.9592 18.4875L74.1758 15.7294L75.471 13.5316L76.7268 11.3769L77.865 9.61005L78.6892 8.48959L79.8666 6.98129L81.5542 5.25751L82.81 4.18015L84.3014 2.97351L86.3422 1.5083L87.9513 1.03426L89.4035 0.560227L92.033 0H93.5636L95.0157 0.215472L96.3501 0.560227L98.2339 1.5083L99.8823 2.97351L101.256 4.86966L102.433 7.49842L103.297 10.946L103.885 14.4366L104.121 18.7891L103.885 25.4688L103.571 28.5285L107.967 24.7362L112.48 21.935L116.68 20.3836L118.21 20.0389H121.821L124.294 20.3836L125.785 20.9008L128.022 22.1936L129.631 23.5295L130.965 25.1671L132.182 27.4942L133.046 30.7694L133.634 32.7517L133.87 37.0612L133.634 41.8877L135.754 41.0689L138.108 40.8104H140.11L143.25 41.4137Z" fill="white" fill-opacity="0.5"/>
<path d="M31.7504 46.1972L1.0989 47.1452L28.4929 43.7408L28.8462 42.3187L29.4741 40.9397L30.2198 40.2501L30.7692 39.7761L31.5934 39.5175H32.4176L33.5557 39.7761L34.6939 40.2501L35.5181 40.638L36.4992 41.3275L37.1664 41.8446L37.8728 42.9651L38.7363 42.3187L39.9921 42.1032L40.9341 42.3187L42.5824 42.9651L44.6625 44.301L45.8791 42.1032L46.9388 40.638L47.8022 39.4744L49.1366 38.0092L51.4129 35.8114L53.7284 34.4324L54.7488 34.0876L56.0047 33.786L57.8493 33.5705L59.1837 33.786L60.675 34.0876L62.0094 34.5617L63.7363 35.596L65.0314 36.6302L65.7771 37.7076L66.1303 38.6126L66.4443 39.9054L66.562 41.2413V41.9739L69.9765 40.207L71.7033 39.5606H73.2339L76.4129 41.8015L78.4537 34.9064L81.9074 26.029L84.5761 20.5991L86.303 17.798L89.3642 14.135L91.2873 12.8852L93.0141 12.4112C93.5374 12.4543 94.6232 12.5491 94.7802 12.5836C94.9372 12.618 95.8922 13.0863 96.3501 13.3162L97.7629 14.3073L99.2936 16.2897L100.785 19.0477L101.766 22.0212L102.59 26.6754L102.826 31.502V36.6302L105.612 34.6479L107.182 34.1738H108.046L108.87 34.6479L110.479 39.6468L113.776 34.1738L115.188 32.3639L116.287 31.1141L117.818 29.692L119.623 28.5716L120.801 28.1406L121.939 27.9252L123.077 28.1406L124.176 28.5716L125.471 29.5196L126.766 30.9418L127.826 32.3639L128.571 33.4843L129.396 35.1219L130.338 37.0181L131.005 39.1728L131.672 41.4568L131.986 43.0513L132.182 44.9043L137.088 43.396L139.286 42.8789L141.837 42.5772H145.133L145.761 42.8789L146.9 44.0855L147.841 45.0767L148.666 46.3265L149.529 47.3607L150 48.6966L132.692 47.0591L119.78 46.3265L99.3328 45.5938H63.7363L31.7504 46.1972Z" fill="#E5BBC1" fill-opacity="0.5"/>
</svg>
